<svg preserveAspectRatio="none" width="100%" height="100%" overflow="visible" style="display: block;" viewBox="0 0 34.8039 34.7085" fill="none" xmlns="http://www.w3.org/2000/svg">
<g id="Group 2087326613">
<path id="Vector" d="M34.8039 17.3543C28.9667 17.7402 25.1499 18.3454 22.6102 19.9131C21.5047 20.5897 20.6422 21.4522 19.9608 22.5577C18.3979 25.0927 17.7879 28.9 17.402 34.7085C17.016 28.8904 16.4108 25.0879 14.8431 22.5577C14.1665 21.457 13.304 20.5945 12.1985 19.9131C9.65878 18.3502 5.84198 17.7402 4.14578e-05 17.3543C5.83722 16.9683 9.65878 16.3584 12.1985 14.7954C13.304 14.114 14.1665 13.2516 14.8479 12.1461C16.4061 9.61109 17.016 5.80382 17.402 0C17.7832 5.81335 18.3931 9.61585 19.956 12.1461C20.6374 13.2516 21.4999 14.114 22.6102 14.7954C25.1499 16.3584 28.9667 16.9683 34.8039 17.3543Z" fill="var(--fill-0, white)"/>
<g id="Group 2087326603">
<path id="Vector_2" d="M13.5231 9.91099C12.619 11.3773 11.4779 12.5185 10.0061 13.428V9.91099H13.5231Z" fill="var(--fill-0, white)"/>
<path id="Vector_3" d="M24.7778 9.91038V13.4274C23.3083 12.5234 22.1634 11.3822 21.2608 9.91038H24.7778Z" fill="var(--fill-0, white)"/>
<path id="Vector_4" d="M13.5231 24.683H10.0061V21.1659C11.4747 22.0714 12.6176 23.2143 13.5231 24.683Z" fill="var(--fill-0, white)"/>
<path id="Vector_5" d="M24.7778 21.1659V24.683H21.2608C22.1649 23.2143 23.306 22.0714 24.7778 21.1659Z" fill="var(--fill-0, white)"/>
</g>
</g>
</svg>
