<svg preserveAspectRatio="none" width="100%" height="100%" overflow="visible" style="display: block;" viewBox="0 0 478.958 699.46" fill="none" xmlns="http://www.w3.org/2000/svg">
<path id="Logo icon" d="M355.164 1.6875C420.073 94.5594 422.23 191.68 383.218 281.228C343.999 371.25 263.163 453.634 162.601 516.286L162.365 516.434V517.752L163.104 517.35C253.625 468.095 312.279 420.917 357.273 365.966C402.027 311.309 433.243 248.985 468.873 169.354C499.614 277.437 453.111 362.463 376.055 427.73C298.669 493.277 190.531 538.831 99.1152 567.659L99.3145 568.634C239.061 554.84 345.942 495.347 450.986 380.792C448.987 426.176 433.48 462.057 408.966 490.311C384.199 518.855 350.221 539.639 311.64 554.557C234.468 584.395 138.98 590.725 62.293 588.832L62.1826 589.822C163.831 610.102 260.87 594.586 371.05 545.364C339.738 609.945 284.912 636.225 222.354 640.532C159.371 644.869 88.5842 626.925 26.1982 603.349L25.7871 604.258C93.3681 640.203 169.12 656.244 260.698 656.794C226.458 685.311 189.904 695.523 153.105 693.253C115.917 690.959 78.4506 675.918 42.8604 654.084L42.2607 654.879C58.9022 670.115 78.0301 684.317 99.8271 697.931C64.3717 702.993 35.3352 688.809 13.8975 666.851L13.2549 666.192L13.0527 667.09C11.3722 674.516 9.36642 681.19 7.10742 686.196C5.97773 688.7 4.79197 690.768 3.56445 692.302C2.54606 693.574 1.5205 694.449 0.5 694.916V572.374C128.83 515.619 220.638 444.376 278.784 351.389C336.725 258.73 361.206 144.535 355.164 1.6875Z" stroke="url(#paint0_linear_0_36)" stroke-opacity="0.7"/>
<defs>
<linearGradient id="paint0_linear_0_36" x1="435.905" y1="40.4644" x2="137.297" y2="756.459" gradientUnits="userSpaceOnUse">
<stop stop-color="white" stop-opacity="0.1"/>
<stop offset="1" stop-color="white" stop-opacity="0.02"/>
</linearGradient>
</defs>
</svg>
