<svg width="304" height="76" viewBox="0 0 304 76" fill="none" xmlns="http://www.w3.org/2000/svg">
<path d="M43.6679 30.8996C43.7852 30.436 43.7105 28.6307 43.7382 28.0152C43.9135 24.1114 43.773 20.1492 43.8162 16.2368C43.8323 14.7615 43.7975 13.2633 43.7711 11.7875C43.7678 11.5964 43.8142 11.4298 43.8987 11.28C44.295 10.5753 44.2577 10.2465 44.2931 9.55605C44.3402 8.64545 45.7948 8.53772 46.3691 8.24919C46.2937 8.28718 46.6552 8.00876 46.6256 8.03188C46.8273 8.27411 46.7481 11.4232 46.7474 11.932L46.7132 19.6159C46.7126 20.1219 46.6069 21.8438 46.8086 22.2057L46.8106 55.3332C46.8067 59.5939 46.7165 64.219 46.8119 68.4591C53.1223 64.7631 57.8884 57.8998 59.6222 50.8555C61.4668 43.3618 60.3002 35.558 56.3751 28.907C54.9056 26.417 52.2683 23.2363 49.8552 21.7174C49.8617 20.4996 49.8449 19.1879 49.8772 17.9777C50.6673 18.2462 51.3035 18.5941 51.8758 19.2188C52.9553 20.3964 54.3185 21.4619 55.3594 22.6501C63.0278 31.3987 65.504 43.2199 61.6337 54.2379C59.3495 60.7407 55.8015 65.6362 50.3451 69.8634C47.8714 71.7842 46.7667 72.6612 43.6518 73.515L43.6538 35.4754C43.6538 34.2426 43.5835 32.0592 43.6679 30.8996Z" fill="black"/>
<path d="M22.219 13.1231C22.7663 13.9913 22.6436 15.2394 21.982 15.9883C21.7178 16.2873 21.6475 16.5149 21.2741 16.7099C21.4575 16.665 21.6226 16.6476 21.8092 16.6213C21.367 16.9283 20.8648 17.1892 20.3912 17.4497C19.7598 17.8319 18.6584 18.3811 17.9336 18.6005C17.6597 19.0287 17.9755 35.9956 17.8039 38.1459C17.8951 40.0205 17.8036 42.6797 17.8012 44.6057L17.7901 57.3699L17.7732 65.7747C17.775 67.9691 17.8599 70.2382 17.5639 72.403C13.7806 70.8061 9.15464 66.6002 6.69493 63.362C1.57899 56.6803 -0.891869 47.9102 0.292098 39.5482C1.3839 31.8374 5.46552 24.0016 11.7425 19.2758C11.7076 20.2579 11.6602 22.7005 11.3843 23.5515C11.1351 24.3198 9.46343 25.5918 8.8427 26.3884C6.83995 28.9582 5.23414 32.2233 4.31546 35.3275C2.0239 42.8521 2.82902 50.9788 6.55269 57.9088C7.91789 60.4097 12.0865 66.2409 14.8377 67.0515C14.8323 65.6028 14.8945 64.1347 14.9036 62.6795L14.955 49.1514L14.9653 35.571C14.9674 33.1328 14.9382 30.6122 14.9845 28.1798C15.0641 27.8845 15.0511 24.7008 15.0399 24.0905C14.9965 21.7199 15.0978 19.225 15.04 16.8744C17.3516 16.1596 20.1973 14.4785 22.219 13.1231Z" fill="black"/>
<path d="M17.8039 38.1459C17.6323 37.5825 17.8042 33.5552 17.7364 32.6793C17.7157 32.4113 17.7659 31.746 17.6932 31.4837C17.6242 31.6005 17.6229 31.5949 17.5184 31.6839C17.4223 31.5209 17.4512 31.1665 17.4509 30.9583C17.5183 30.8901 17.5504 30.8607 17.6264 30.7981L17.6933 30.7437C17.7786 29.8086 17.7069 28.1432 17.7129 27.1407C17.7157 26.6742 17.023 26.9218 16.8874 26.2304C16.9637 25.9933 17.1737 25.7191 17.3186 25.5046L17.4109 25.4944L17.4106 25.639C17.6079 25.5821 17.5157 25.5788 17.6962 25.6219C17.776 24.6387 17.6285 18.9896 17.7908 18.5875L17.9336 18.6005C17.6597 19.0287 17.9755 35.9956 17.8039 38.1459Z" fill="black"/>
<path d="M21.2741 16.7099C21.4575 16.665 21.6226 16.6476 21.8092 16.6213C21.367 16.9283 20.8648 17.1892 20.3912 17.4497L20.3107 17.3307C20.5115 17.0915 20.9888 16.8523 21.2741 16.7099Z" fill="black"/>
<path d="M32.115 0C32.9763 0.536497 34.5029 1.26204 35.4564 1.76248C38.031 3.10224 40.5852 4.48025 43.1188 5.89612C44.1687 6.47827 45.8554 7.35043 46.8176 7.99877L46.8086 22.2057C46.6069 21.8438 46.7126 20.1219 46.7132 19.6159L46.7474 11.932C46.7481 11.4232 46.8273 8.27411 46.6256 8.03188C46.6552 8.00876 46.2937 8.28718 46.3691 8.24919C45.7948 8.53772 44.3402 8.64545 44.2931 9.55605C44.2577 10.2465 44.295 10.5753 43.8987 11.28C43.8142 11.4298 43.7678 11.5964 43.7711 11.7875C43.7975 13.2633 43.8323 14.7615 43.8162 16.2368C43.773 20.1492 43.9135 24.1114 43.7382 28.0152C43.7105 28.6307 43.7852 30.436 43.6679 30.8996C43.588 28.6518 43.6582 25.9265 43.6582 23.6366L43.6486 9.65855C40.5549 8.33907 38.4873 6.65135 35.2073 5.50643C35.1982 6.33738 35.1907 7.13427 35.1422 7.96374C35.1486 11.1433 35.1342 14.3229 35.0992 17.5023C35.0955 18.9026 35.184 21.3601 35.0947 22.669C35.1598 23.6543 35.1237 24.9614 35.1194 25.9646L35.0953 31.6661C35.0925 34.5097 35.2542 38.0606 35.1361 40.8217C35.2287 48.2442 35.2775 55.6674 35.2825 63.0903C35.2882 65.7109 35.2674 68.3322 35.2201 70.9523C35.1975 72.2053 35.1808 74.343 35.0242 75.551C34.0466 76.0519 33.0843 76.0043 31.9983 75.994C32.1704 68.6252 32.074 60.9429 32.0831 53.56L32.0963 47.491C32.0986 46.573 32.0619 45.2453 32.1115 44.3553C32.0309 43.9609 32.0984 41.5583 32.1014 40.9582L32.0963 33.032L32.115 0Z" fill="black"/>
<path d="M35.1422 7.96374C35.1486 11.1433 35.1342 14.3229 35.0992 17.5023C35.0955 18.9026 35.184 21.3601 35.0947 22.669C35.0454 23.0823 35.0671 23.5891 35.0091 24.0936C34.9155 23.6809 34.9482 20.677 34.9491 20.0156C34.9396 17.3357 34.9632 14.6559 35.0199 11.9765C35.0289 11.2445 35.0293 8.6088 35.1422 7.96374Z" fill="black"/>
<path d="M14.9602 16.7572C20.0099 15.1879 23.7668 11.1777 29.2277 9.47653L29.1912 44.0748C29.1917 45.2941 29.2466 47.1361 29.1589 48.2928C29.2095 49.0622 29.1819 50.0449 29.1827 50.84L29.1783 69.1848C29.1788 71.3496 29.1389 73.7243 29.1953 75.8794C28.3188 75.7635 27.0282 75.5246 26.2106 75.4583L26.2314 58.4851C26.2351 55.8303 26.1674 52.8491 26.2502 50.2162C26.1817 49.6996 26.219 47.4187 26.2191 46.7691L26.1961 14.4414C24.2765 15.0584 23.4603 15.7987 21.8092 16.6213C21.6226 16.6476 21.4575 16.665 21.2741 16.7099C21.6475 16.5149 21.7178 16.2873 21.982 15.9883C22.6436 15.2394 22.7663 13.9913 22.219 13.1231C20.1973 14.4785 17.3516 16.1596 15.04 16.8744C15.0978 19.225 14.9965 21.7199 15.0399 24.0905C15.0511 24.7008 15.0641 27.8845 14.9845 28.1798C14.9366 24.3978 14.9549 20.5421 14.9602 16.7572Z" fill="black"/>
<path d="M37.9093 9.83705C38.8625 10.3625 39.9582 10.9987 40.9346 11.4551L40.9301 71.6451C40.9294 72.2465 40.9578 73.4055 40.8966 73.9548L40.8927 74.6096C39.8473 74.8524 38.8503 75.0829 37.7926 75.2806C37.917 74.1583 37.8532 71.6947 37.8558 70.4455L37.9202 29.3314C37.8764 28.0173 37.8854 26.6397 37.8996 25.3214C37.9531 20.1677 37.8351 14.9879 37.9093 9.83705Z" fill="black"/>
<path d="M37.9093 9.83705C38.8625 10.3625 39.9582 10.9987 40.9346 11.4551L40.9301 71.6451C40.9294 72.2465 40.9578 73.4055 40.8966 73.9548C40.827 73.1299 40.8752 71.3238 40.8759 70.4526L40.8797 63.608L40.8598 32.0905L40.7921 20.7085C40.7863 19.9459 40.9352 15.9189 40.669 15.5964C40.2288 15.997 39.746 16.3954 39.2891 16.7785C38.9546 17.0588 39.088 17.3406 38.8418 17.5801L38.7251 17.5043C38.6646 17.7858 38.3152 18.5072 38.2385 18.887C38.1644 19.2504 38.2418 19.274 38.1683 19.6015L38.0639 19.6346L38.0181 19.5335C37.9408 21.7673 38.0664 24.0564 38.013 26.2931C37.993 27.1433 38.1039 28.5284 37.9202 29.3314C37.8764 28.0173 37.8854 26.6397 37.8996 25.3214C37.9531 20.1677 37.8351 14.9879 37.9093 9.83705Z" fill="black"/>
<path d="M20.4999 20.4978C21.5155 20.0091 22.4762 19.5844 23.4837 19.0637L23.4741 36.2816C23.4735 36.7654 23.4904 37.9617 23.4233 38.4211C23.4633 41.7159 23.4235 45.0696 23.4217 48.3708L23.4176 74.7719C22.5025 74.4602 21.2933 73.931 20.4517 73.6966L20.4523 45.2181C20.4525 44.0963 20.4114 42.6686 20.4596 41.564C20.3627 39.133 20.4086 35.7529 20.46 33.2892C20.4131 32.5438 20.4476 31.371 20.4473 30.5983L20.4462 25.3965C20.4462 24.7085 20.4072 20.9161 20.4999 20.4978Z" fill="black"/>
<path d="M242.466 17.1009L248.04 17.0887C251.176 22.0903 255.296 27.8005 258.686 32.7669C258.589 27.6477 258.667 22.281 258.675 17.1415L263.431 17.0847C263.447 24.3598 263.55 32.0528 263.412 39.3008L263.16 39.4875C261.521 39.4469 259.883 39.4428 258.244 39.4767C254.742 34.1546 250.513 28.6634 247.195 23.3413C247.321 28.5525 247.233 34.2127 247.218 39.4483C245.635 39.4496 244.051 39.4645 242.469 39.4929L242.466 17.1009Z" fill="black"/>
<path d="M135.027 17.1483L139.839 17.0901L139.851 31.4063C139.851 33.6839 139.952 37.1747 139.792 39.3171C139.349 39.5619 139.26 39.4645 138.67 39.4618C137.373 39.4185 135.951 39.4618 134.644 39.4753C131.504 34.233 127.069 28.7689 123.885 23.2981C123.948 28.6567 123.892 34.1181 123.888 39.4821C122.316 39.4374 120.743 39.4388 119.171 39.4848C119.175 32.959 119.156 26.4332 119.154 19.9074C119.154 19.342 119.063 17.508 119.368 17.1618L120.007 17.1239L124.778 17.0982C125.826 18.8849 127.398 21.08 128.581 22.8396C130.836 26.1397 133.009 29.4952 135.099 32.9022C134.944 27.7316 135.021 22.3351 135.027 17.1483Z" fill="black"/>
<path fill-rule="evenodd" clip-rule="evenodd" d="M82.1684 17.0635C81.4556 17.0871 80.8026 17.1087 80.2378 17.1131C80.1687 22.3905 80.1856 27.7357 80.2024 33.0561C80.2093 35.2024 80.216 37.3446 80.2172 39.4767C80.6004 39.4727 80.9959 39.4664 81.3975 39.46C82.6284 39.4404 83.9155 39.42 85.0761 39.4618L85.0846 30.8626C85.2114 30.8641 85.337 30.8643 85.4613 30.8646C86.593 30.8667 87.6139 30.8687 88.4115 31.7985C89.5571 33.133 90.5283 34.7911 91.4812 36.4185C92.0988 37.4731 92.7088 38.5147 93.3539 39.4469L95.1638 39.4482L99.0018 39.4252C98.6053 38.8164 98.218 38.2026 97.8307 37.5889C97.4377 36.9661 97.0447 36.3434 96.6424 35.7262C96.353 35.2821 96.0842 34.8478 95.8229 34.4255C94.5914 32.435 93.5253 30.7122 91.2437 29.4993C92.955 28.8595 95.1879 27.8059 95.8215 25.9882C99.1277 16.5035 88.3762 16.8585 82.1684 17.0635ZM85.6068 20.7207L85.6133 20.7204C87.9198 20.631 91.1825 20.5046 91.3135 23.5713C91.3655 24.7912 91.0349 25.4688 90.214 26.352C88.6169 27.3241 87.4661 27.3241 85.8119 27.324C85.6832 27.324 85.5514 27.324 85.4162 27.3245C85.2944 27.3249 85.1699 27.3256 85.0422 27.3271C85.0822 25.7821 85.085 24.1973 85.0878 22.6274C85.0889 21.9943 85.09 21.3637 85.0936 20.7391C85.2578 20.7342 85.4295 20.7276 85.6068 20.7207Z" fill="black"/>
<path fill-rule="evenodd" clip-rule="evenodd" d="M85.6133 20.7204C85.4574 20.7265 85.3057 20.7323 85.1598 20.737C85.3037 20.7324 85.4533 20.7267 85.6068 20.7207L85.6133 20.7204Z" fill="white"/>
<path fill-rule="evenodd" clip-rule="evenodd" d="M229.506 17.0939C228.481 17.0941 227.434 17.0943 226.449 17.1279L224.627 17.1239L218.798 32.6952C218.559 33.3326 218.308 34.0175 218.052 34.7194C217.462 36.3347 216.838 38.0395 216.244 39.4604C218.081 39.4537 219.917 39.4577 221.755 39.4726L223.365 34.5008L231.721 34.5184C232.272 36.1549 232.8 37.7995 233.301 39.4537C233.763 39.4529 234.239 39.4551 234.722 39.4572C236.098 39.4634 237.531 39.4698 238.832 39.4117C237.668 35.8551 236.285 32.2305 234.904 28.6145C233.422 24.7321 231.944 20.8596 230.746 17.0914C230.34 17.0938 229.925 17.0938 229.506 17.0939ZM227.502 20.9393C227.687 21.2422 230.348 29.9753 230.56 30.8477L227.672 30.8693C226.597 30.868 225.524 30.8761 224.449 30.891C224.692 30.1161 224.976 29.2471 225.273 28.3349C226.085 25.846 227.002 23.0355 227.502 20.9393Z" fill="black"/>
<path fill-rule="evenodd" clip-rule="evenodd" d="M154.651 17.1137C153.748 17.1122 152.846 17.1106 151.943 17.1266L151.655 17.2808C151.261 18.3123 150.797 19.5213 150.29 20.8415C147.994 26.8226 144.823 35.0841 143.342 39.4428L148.744 39.4374C149.23 37.7914 149.737 36.1508 150.265 34.517L156.992 34.513L158.665 34.5332C159.207 36.1346 159.775 37.8523 160.232 39.478C160.641 39.4749 161.062 39.4693 161.49 39.4637C162.919 39.4448 164.424 39.4249 165.77 39.4915L160.836 25.8218C160.55 25.0377 160.252 24.2344 159.95 23.4219C159.166 21.3136 158.359 19.1443 157.696 17.0941C156.677 17.117 155.663 17.1154 154.651 17.1137ZM154.445 20.9136C154.514 20.9924 156.126 26.1905 157.014 29.0539L157.073 29.2461C157.329 30.07 157.515 30.6696 157.57 30.845L154.583 30.872L151.449 30.8829C151.827 29.4065 152.324 27.9148 152.822 26.4177C153.432 24.585 154.044 22.7442 154.445 20.9136Z" fill="black"/>
<path fill-rule="evenodd" clip-rule="evenodd" d="M157.494 30.6017C157.395 30.2853 157.225 29.7358 157.014 29.0539L157.073 29.2461C157.257 29.8399 157.405 30.3158 157.494 30.6017Z" fill="white"/>
<path d="M291.011 17.1239C295.095 17.0454 299.347 17.105 303.447 17.0982C303.454 18.3736 303.424 19.6909 303.412 20.9704H295.33C295.226 22.6326 295.273 24.6992 295.271 26.3939L302.814 26.3628L302.794 30.0835C300.295 30.0605 297.795 30.0659 295.296 30.0998L295.272 33.3201L295.261 35.7072C298.08 35.6328 301.088 35.6694 303.922 35.6599L303.904 39.4618L290.345 39.4672C290.345 37.1246 290.255 17.5323 290.486 17.1902L291.011 17.1239Z" fill="black"/>
<path d="M205.978 16.8399C208.573 16.6424 210.551 16.9062 213.01 17.6825L213.009 21.8847C210.739 20.6228 206.456 19.3663 204.213 21.414C201.153 24.2083 207.499 26.4196 209.476 27.2893C213.735 29.1625 215.567 33.6663 212.407 37.4871C210.701 39.5051 207.281 39.8269 204.659 39.8946C202.09 39.8256 200.645 39.5199 198.255 38.6584L198.285 34.0031C198.432 34.1167 198.581 34.229 198.732 34.3385C200.779 35.8127 203.279 36.5931 205.841 36.255C208.88 35.8547 209.883 32.9995 206.993 31.3319C204.028 29.6196 198.783 28.5025 198.277 24.3449C197.654 19.2108 201.589 17.2849 205.978 16.8399Z" fill="black"/>
<path d="M186.765 16.8399C189.43 16.6546 191.323 16.8832 193.84 17.6933C193.892 19.0417 193.841 20.539 193.824 21.8996C191.843 20.7445 190.225 20.3726 187.932 20.3645C186.628 20.3604 183.814 21.4789 184.24 22.9883C185.157 26.233 190.448 26.5603 192.669 28.823C193.867 29.8617 194.792 31.336 194.813 33.0158C194.882 38.7788 189.924 39.7634 185.461 39.8905C182.742 39.8188 181.622 39.5632 179.127 38.6286C179.106 37.099 179.15 35.4895 179.172 33.9544C181.03 35.4922 183.448 36.4876 185.882 36.3077C186.783 36.2712 188.446 35.9493 188.972 35.1852C191.42 31.6376 185.058 30.2891 182.943 29.0245C181.09 27.9155 179.389 26.5846 179.147 24.2299C178.975 22.561 179.311 20.8811 180.428 19.5611C182.022 17.6771 184.393 17.0522 186.765 16.8399Z" fill="black"/>
<path d="M102.819 17.1198C106.711 17.0468 110.844 17.109 114.75 17.1063L114.732 20.9758L106.582 20.9799L106.562 26.402C109.044 26.3777 111.527 26.3696 114.009 26.3763C114.03 27.5949 114.004 28.8785 113.998 30.1011C111.525 30.0849 109.051 30.0984 106.578 30.1444L106.575 33.554L106.578 35.714C109.396 35.6518 112.253 35.6924 115.086 35.6437L115.086 39.4523L101.688 39.4658L101.686 25.0076C101.683 23.0276 101.568 19.154 101.749 17.3011C102.146 17.0576 102.276 17.1428 102.819 17.1198Z" fill="black"/>
<path d="M278.717 16.8385C281.044 16.541 283.512 17.0319 285.746 17.6554C285.717 19.1229 285.713 20.5917 285.738 22.0605C284.768 21.5073 283.715 21.1151 282.621 20.8987C274.938 19.3866 270.321 26.4115 274.189 33.1402C275.845 36.0223 280.499 36.3699 283.264 35.503C283.767 35.3461 285.321 34.4507 285.696 34.5129L285.727 34.8754C285.685 36.0913 285.735 37.4546 285.755 38.6827C284.402 39.2575 282.971 39.6308 281.509 39.7904C278.048 40.1799 274.213 39.7512 271.426 37.479C266.723 33.6447 266.447 25.5892 270.211 21.0164C272.465 18.2762 275.281 17.2118 278.717 16.8385Z" fill="black"/>
<path d="M170.232 17.1225L174.508 17.0928C174.544 22.4622 174.546 27.833 174.514 33.2024C174.512 34.0923 174.578 38.8004 174.458 39.3657L174.205 39.4793C172.684 39.4604 171.163 39.459 169.642 39.4753C169.636 38.9708 169.61 37.3802 169.638 37.0164C169.815 34.7239 169.326 17.8623 169.801 17.1644L170.232 17.1225Z" fill="black"/>
<path fill-rule="evenodd" clip-rule="evenodd" d="M129.608 50.5929C127.042 50.5185 124.605 50.509 122.037 50.532C121.867 51.4177 121.898 54.3119 121.922 56.625C121.934 57.7344 121.944 58.7101 121.93 59.2664C122.37 59.2667 122.902 59.2778 123.489 59.2901C126.195 59.347 130.085 59.4287 131.639 58.5807C133.355 56.6155 133.425 50.7038 129.608 50.5929ZM124.848 52.2524C125.252 52.2762 125.695 52.2626 126.147 52.2487C127.081 52.22 128.053 52.1902 128.802 52.4863C130.016 52.9651 129.686 56.3356 129.242 57.2066C128.31 57.5485 126.747 57.5425 125.524 57.5378C125.276 57.5369 125.042 57.5359 124.83 57.538C124.814 56.3463 124.825 55.1229 124.836 53.9099V53.8946C124.841 53.3436 124.845 52.7949 124.848 52.2524Z" fill="black"/>
<path fill-rule="evenodd" clip-rule="evenodd" d="M124.836 53.8946C124.829 54.6752 124.822 55.4603 124.822 56.2385C124.822 55.4654 124.829 54.6855 124.836 53.9099V53.8946Z" fill="white"/>
<path fill-rule="evenodd" clip-rule="evenodd" d="M191.215 50.4478C190.203 50.4399 188.918 50.4299 188.105 50.5847C185.572 50.7876 185.241 52.1131 185.104 54.3325C184.889 57.8219 185.838 59.4585 189.605 59.3868C189.876 59.3817 190.177 59.3855 190.496 59.3895C192.202 59.4109 194.426 59.4389 195.431 58.1479C196.23 56.9956 196.259 54.5624 196.046 53.1883C195.832 51.8074 195.249 51.1758 194.028 50.6524C193.144 50.5077 192.696 50.4792 191.796 50.4509C191.619 50.4509 191.423 50.4493 191.215 50.4478ZM189.8 52.2036L191.611 52.2239C191.676 52.2436 191.744 52.2628 191.812 52.2824C192.121 52.3704 192.448 52.4636 192.71 52.6175C193.408 54.5584 193.332 58.1776 190.502 57.6421C190.237 57.5917 190.023 57.5854 189.822 57.5794C189.461 57.5688 189.138 57.5593 188.628 57.2998C187.754 56.2855 187.787 53.9119 188.43 52.7744C188.658 52.3716 189.187 52.2941 189.631 52.2293L189.701 52.219C189.735 52.2139 189.768 52.2089 189.8 52.2036Z" fill="black"/>
<path fill-rule="evenodd" clip-rule="evenodd" d="M189.8 52.2036C189.766 52.2092 189.73 52.2146 189.694 52.22L189.701 52.219C189.735 52.2139 189.768 52.2089 189.8 52.2036Z" fill="white"/>
<path d="M188.105 50.5847C189.084 50.3981 190.75 50.4509 191.796 50.4509C191.654 51.1609 191.726 51.6329 191.611 52.2239L189.8 52.2037C189.556 51.7101 189.461 51.3882 189.293 50.8756C188.891 50.5158 188.747 50.624 188.105 50.5847Z" fill="black"/>
<path d="M212.471 50.532C213.918 50.5036 215.365 50.49 216.811 50.4927C217.474 52.4052 218.588 55.2955 219.387 57.1416C220.333 54.8383 220.925 52.8177 222.047 50.4914L226.232 50.4887L226.246 59.2786L223.522 59.2799L223.46 55.919C223.429 54.8694 223.46 53.7225 223.467 52.6649C222.526 54.5746 221.485 57.2525 220.758 59.2597L217.826 59.261C217.026 56.9983 216.081 54.7477 215.175 52.5215L215.139 59.2542L212.43 59.2678C212.426 56.3842 212.384 53.4074 212.471 50.532Z" fill="black"/>
<path d="M250.325 50.4927L252.965 50.4982C253.066 53.2748 253 56.4762 252.951 59.2597L248.551 59.2664C247.257 56.9266 245.96 54.7207 244.722 52.3348C244.765 54.6463 244.766 56.9577 244.729 59.2678L242.092 59.2772C242.063 56.3572 242.072 53.4371 242.115 50.5171C243.525 50.5212 244.935 50.5117 246.346 50.4887C247.674 52.7419 248.878 54.933 250.259 57.1809C250.382 55.1467 250.32 52.5675 250.325 50.4927Z" fill="black"/>
<path fill-rule="evenodd" clip-rule="evenodd" d="M202.902 50.4911C202.479 50.5094 202.083 50.5266 201.734 50.5293L199.611 50.5564L199.609 59.2732L202.456 59.2543L202.464 56.8847L204.785 56.8198C207.456 56.8279 209.448 56.7102 209.418 53.3763C209.39 50.2105 205.59 50.3749 202.902 50.4911ZM202.472 52.2659C202.643 52.261 202.826 52.2528 203.015 52.2442C204.907 52.1591 207.476 52.0435 206.12 54.8762C205.496 55.1201 203.983 55.1142 202.98 55.1103H202.973C202.777 55.1096 202.601 55.1089 202.456 55.1102L202.472 52.2659Z" fill="black"/>
<path d="M84.9214 53.4683L113.732 53.471L113.741 55.6607C109.77 55.5308 104.891 55.6512 100.892 55.6742L84.8911 55.6377L84.9214 53.4683Z" fill="black"/>
<path d="M271.175 53.4588L300.219 53.4494C300.234 54.1784 300.211 54.9006 300.192 55.6296C290.517 55.6864 280.841 55.6905 271.165 55.6418L271.175 53.4588Z" fill="black"/>
<path d="M136.093 50.5212C139.022 50.5022 141.951 50.5049 144.879 50.5293L144.876 52.297L139.01 52.2429C139.005 52.819 138.93 53.6116 139.147 54.108C140.554 53.9497 142.819 54.0038 144.299 54.0038L144.302 55.5849L142.433 55.5917C141.264 55.612 140.142 55.5606 138.977 55.5159L139.017 57.4987L144.985 57.4811L144.982 59.261L136.102 59.2826L136.093 50.5212Z" fill="black"/>
<path d="M139.147 54.108C140.554 53.9497 142.819 54.0038 144.299 54.0038L144.302 55.5849L142.433 55.5917C142.634 55.3131 142.721 54.5503 142.788 54.1743C141.559 54.1067 140.452 54.2121 139.147 54.108Z" fill="black"/>
<path d="M229.777 50.5225L238.598 50.5076L238.594 52.2334C236.675 52.3159 234.675 52.2713 232.748 52.2578L232.747 54.0526C233.627 54.0309 237.419 53.7793 237.911 54.3109C237.941 54.7748 237.977 54.8668 237.751 55.282C237.083 55.8649 235.131 55.6079 234.087 55.6079C233.622 55.5849 233.239 55.4957 232.871 55.7391C232.604 56.1665 232.71 56.9564 232.728 57.5028C234.709 57.4771 236.709 57.4893 238.69 57.4866L238.694 59.2678L229.784 59.261C229.765 56.3478 229.763 53.4358 229.777 50.5225Z" fill="black"/>
<path d="M162.033 50.5199L170.81 50.5144L170.806 52.2578C168.842 52.2646 166.879 52.2862 164.915 52.3214C164.892 53.0179 164.872 53.3885 164.963 54.0932C166.146 54.0025 168.865 53.9281 169.99 54.0904C170.256 54.3718 170.213 54.9966 170.151 55.374C169.604 55.7446 168.805 55.6201 168.103 55.5985C167.071 55.6255 165.938 55.5809 164.898 55.5606L164.892 57.5096C166.87 57.4812 168.848 57.4731 170.827 57.4839L170.835 59.2651C167.929 59.2286 164.939 59.2678 162.025 59.2759L162.033 50.5199Z" fill="black"/>
<path d="M164.963 54.0932C166.146 54.0025 168.865 53.9281 169.99 54.0904C170.256 54.3718 170.213 54.9966 170.151 55.374C169.604 55.7446 168.805 55.6201 168.103 55.5985L168.515 54.1662C167.338 54.1337 166.129 54.2271 164.963 54.0932Z" fill="black"/>
<path d="M153.394 57.2377C153.954 55.85 155.652 51.4909 156.302 50.4833C157.246 50.4806 158.217 50.5117 159.164 50.5293L158.379 52.3349C157.355 54.6301 156.358 56.9388 155.388 59.2583L151.298 59.2597C150.738 57.8017 147.924 51.4314 147.766 50.528L150.581 50.4928C151.519 52.5635 152.509 55.1102 153.394 57.2377Z" fill="black"/>
<path d="M261.097 50.5076C262.545 50.4995 263.994 50.5022 265.443 50.5158L265.452 52.2632L261.963 52.2794C261.981 54.5611 261.943 56.9983 262.003 59.2624L259.118 59.2678C259.12 58.4062 259.25 52.7798 258.955 52.3213L255.773 52.2875L255.764 50.5117C257.54 50.4968 259.319 50.4955 261.097 50.5076Z" fill="black"/>
<path d="M255.764 50.5117C257.54 50.4968 259.319 50.4955 261.097 50.5076C260.667 50.8011 259.474 50.6537 258.952 50.5942C258.425 51.0054 258.806 51.6924 258.955 52.3213L255.773 52.2875L255.764 50.5117Z" fill="black"/>
<path d="M174.303 50.5307L177.123 50.4955C177.176 52.7717 177.118 55.2387 177.109 57.5285L182.478 57.4365L182.452 59.2556L174.25 59.257C174.223 56.9604 174.074 52.6757 174.303 50.5307Z" fill="black"/>
</svg>
