<svg preserveAspectRatio="none" width="100%" height="100%" overflow="visible" style="display: block;" viewBox="0 0 199 48" fill="none" xmlns="http://www.w3.org/2000/svg">
<g id="12">
<path id="Vector" d="M60.7088 32.9423H74.6997V28.7277H65.6815V12.8525H60.7088V32.9423Z" fill="var(--fill-0, black)"/>
<path id="Vector_2" d="M82.99 30.1317C80.9953 30.1317 79.9558 28.3896 79.9558 25.7765C79.9558 23.1635 80.9953 21.3933 82.99 21.3933C84.9847 21.3933 86.0523 23.1635 86.0523 25.7765C86.0523 28.3896 84.9847 30.1317 82.99 30.1317ZM83.0181 33.391C87.6536 33.391 90.6878 30.1036 90.6878 25.7765C90.6878 21.4495 87.6536 18.1621 83.0181 18.1621C78.4107 18.1621 75.3203 21.4495 75.3203 25.7765C75.3203 30.1036 78.4107 33.391 83.0181 33.391Z" fill="var(--fill-0, black)"/>
<path id="Vector_3" d="M98.7076 37.9155C100.843 37.9155 102.725 37.4378 103.989 36.3139C105.141 35.2743 105.9 33.7008 105.9 31.5373V18.5562H101.517V20.1016H101.461C100.618 18.8934 99.3256 18.1348 97.4152 18.1348C93.8473 18.1348 91.375 21.1131 91.375 25.3277C91.375 29.7391 94.3811 32.1554 97.6119 32.1554C99.3537 32.1554 100.449 31.453 101.292 30.4977H101.405V31.9307C101.405 33.6727 100.59 34.6842 98.6514 34.6842C97.1343 34.6842 96.3758 34.038 96.1229 33.2794H91.684C92.1335 36.2858 94.7463 37.9155 98.7076 37.9155ZM98.6795 28.7556C96.9657 28.7556 95.842 27.3508 95.842 25.1873C95.842 22.9956 96.9657 21.5908 98.6795 21.5908C100.59 21.5908 101.601 23.2204 101.601 25.1592C101.601 27.1822 100.674 28.7556 98.6795 28.7556Z" fill="var(--fill-0, black)"/>
<path id="Vector_4" d="M114.914 30.1317C112.919 30.1317 111.88 28.3896 111.88 25.7765C111.88 23.1635 112.919 21.3933 114.914 21.3933C116.909 21.3933 117.976 23.1635 117.976 25.7765C117.976 28.3896 116.909 30.1317 114.914 30.1317ZM114.942 33.391C119.577 33.391 122.612 30.1036 122.612 25.7765C122.612 21.4495 119.577 18.1621 114.942 18.1621C110.334 18.1621 107.244 21.4495 107.244 25.7765C107.244 30.1036 110.334 33.391 114.942 33.391Z" fill="var(--fill-0, black)"/>
<path id="Vector_5" d="M123.949 32.9423H128.529V18.5563H123.949V32.9423ZM123.949 16.5614H128.529V12.8525H123.949V16.5614Z" fill="var(--fill-0, black)"/>
<path id="Vector_6" d="M130.512 37.6907H135.091V31.453H135.147C136.046 32.6612 137.367 33.3917 139.221 33.3917C142.986 33.3917 145.486 30.4134 145.486 25.7492C145.486 21.4222 143.154 18.1348 139.333 18.1348C137.367 18.1348 135.962 19.0058 134.979 20.2983H134.895V18.5562H130.512V37.6907ZM138.041 29.8514C136.075 29.8514 134.951 28.2499 134.951 25.9178C134.951 23.5857 135.962 21.8155 137.957 21.8155C139.923 21.8155 140.851 23.4452 140.851 25.9178C140.851 28.3623 139.783 29.8514 138.041 29.8514Z" fill="var(--fill-0, black)"/>
<path id="Vector_7" d="M152.943 33.3917C156.707 33.3917 159.489 31.7621 159.489 28.6152C159.489 24.9344 156.511 24.2881 153.982 23.8667C152.156 23.5295 150.527 23.389 150.527 22.3775C150.527 21.4784 151.398 21.0569 152.521 21.0569C153.786 21.0569 154.656 21.4503 154.825 22.7428H159.039C158.814 19.9049 156.623 18.1348 152.549 18.1348C149.15 18.1348 146.341 19.7082 146.341 22.7428C146.341 26.1145 149.01 26.7888 151.51 27.2103C153.42 27.5474 155.162 27.6879 155.162 28.9804C155.162 29.9076 154.291 30.4134 152.915 30.4134C151.398 30.4134 150.442 29.711 150.274 28.278H145.947C146.088 31.453 148.729 33.3917 152.943 33.3917Z" fill="var(--fill-0, black)"/>
<path id="Vector_8" d="M165.709 33.3641C167.704 33.3641 168.968 32.5773 170.008 31.1724H170.092V32.9426H174.475V18.5566H169.895V26.5925C169.895 28.3065 168.94 29.4866 167.367 29.4866C165.906 29.4866 165.204 28.6156 165.204 27.0421V18.5566H160.652V27.9974C160.652 31.2005 162.394 33.3641 165.709 33.3641Z" fill="var(--fill-0, black)"/>
<path id="Vector_9" d="M176.469 32.9422H181.048V24.8782C181.048 23.1642 181.891 21.956 183.324 21.956C184.7 21.956 185.346 22.8552 185.346 24.4005V32.9422H189.926V24.8782C189.926 23.1642 190.741 21.956 192.201 21.956C193.578 21.956 194.224 22.8552 194.224 24.4005V32.9422H198.804V23.5857C198.804 20.3545 197.174 18.1348 193.915 18.1348C192.061 18.1348 190.516 18.9215 189.392 20.6635H189.336C188.605 19.1182 187.173 18.1348 185.29 18.1348C183.211 18.1348 181.835 19.1182 180.936 20.6074H180.851V18.5562H176.469V32.9422Z" fill="var(--fill-0, black)"/>
<path id="Vector_10" fill-rule="evenodd" clip-rule="evenodd" d="M24.2125 46.9904C37.1425 46.9904 47.6243 36.5073 47.6243 23.5757C47.6243 10.6442 37.1425 0.161133 24.2125 0.161133C11.2825 0.161133 0.800722 10.6442 0.800722 23.5757C0.800722 36.5073 11.2825 46.9904 24.2125 46.9904ZM31.5162 11.0687C31.8717 9.80568 30.6462 9.05884 29.527 9.85631L13.9033 20.9879C12.6895 21.8528 12.8804 23.5757 14.19 23.5757H18.3042V23.5439H26.3225L19.7891 25.8494L16.9089 36.0829C16.5534 37.3459 17.7787 38.0927 18.898 37.2952L34.5218 26.1636C35.7355 25.2988 35.5445 23.5757 34.235 23.5757H27.996L31.5162 11.0687Z" fill="var(--fill-0, #737476)"/>
</g>
</svg>
