<svg preserveAspectRatio="none" width="100%" height="100%" overflow="visible" style="display: block;" viewBox="0 0 240 48" fill="none" xmlns="http://www.w3.org/2000/svg">
<g id="15">
<path id="Vector" d="M72.1113 36.3577V11.9258H76.7184V32.1694H87.8873V36.3577H72.1113Z" fill="var(--fill-0, black)"/>
<path id="Vector_2" d="M97.8325 36.8457C96.1107 36.8457 94.5633 36.4966 93.1905 35.7985C91.8175 35.1006 90.7356 34.0884 89.9445 32.7621C89.1534 31.4358 88.7578 29.8419 88.7578 27.9804V27.4219C88.7578 25.5604 89.1534 23.9665 89.9445 22.6402C90.7356 21.3139 91.8175 20.3017 93.1905 19.6036C94.5633 18.9057 96.1107 18.5566 97.8325 18.5566C99.5544 18.5566 101.102 18.9057 102.475 19.6036C103.847 20.3017 104.929 21.3139 105.721 22.6402C106.512 23.9665 106.907 25.5604 106.907 27.4219V27.9804C106.907 29.8419 106.512 31.4358 105.721 32.7621C104.929 34.0884 103.847 35.1006 102.475 35.7985C101.102 36.4966 99.5544 36.8457 97.8325 36.8457ZM97.8325 32.9365C99.1821 32.9365 100.299 32.506 101.183 31.6452C102.067 30.7609 102.51 29.5044 102.51 27.8757V27.5266C102.51 25.8978 102.067 24.6529 101.183 23.7919C100.322 22.9078 99.2053 22.4656 97.8325 22.4656C96.483 22.4656 95.3661 22.9078 94.4818 23.7919C93.5976 24.6529 93.1555 25.8978 93.1555 27.5266V27.8757C93.1555 29.5044 93.5976 30.7609 94.4818 31.6452C95.3661 32.506 96.483 32.9365 97.8325 32.9365Z" fill="var(--fill-0, black)"/>
<path id="Vector_3" d="M108.557 27.771V27.2125C108.557 25.3975 108.917 23.8501 109.639 22.5703C110.36 21.2674 111.314 20.2785 112.501 19.6036C113.711 18.9057 115.025 18.5566 116.445 18.5566C118.027 18.5566 119.225 18.8358 120.04 19.3942C120.854 19.9527 121.447 20.5344 121.82 21.1393H122.448V19.0452H126.776V39.4284C126.776 40.6152 126.427 41.5575 125.729 42.2556C125.031 42.9769 124.1 43.3375 122.937 43.3375H111.349V39.4983H121.401C122.052 39.4983 122.378 39.1492 122.378 38.4511V33.9487H121.75C121.517 34.321 121.191 34.7049 120.773 35.1006C120.354 35.4727 119.795 35.787 119.097 36.0429C118.399 36.2988 117.515 36.4269 116.445 36.4269C115.025 36.4269 113.711 36.0894 112.501 35.4147C111.314 34.7166 110.36 33.7276 109.639 32.4478C108.917 31.1449 108.557 29.5858 108.557 27.771ZM117.701 32.5875C119.051 32.5875 120.179 32.157 121.087 31.2961C121.994 30.4351 122.448 29.2252 122.448 27.6663V27.3172C122.448 25.7349 121.994 24.525 121.087 23.6872C120.202 22.8264 119.074 22.3959 117.701 22.3959C116.352 22.3959 115.223 22.8264 114.316 23.6872C113.408 24.525 112.954 25.7349 112.954 27.3172V27.6663C112.954 29.2252 113.408 30.4351 114.316 31.2961C115.223 32.157 116.352 32.5875 117.701 32.5875Z" fill="var(--fill-0, black)"/>
<path id="Vector_4" d="M138.321 36.8457C136.599 36.8457 135.052 36.4966 133.679 35.7985C132.306 35.1006 131.224 34.0884 130.433 32.7621C129.642 31.4358 129.246 29.8419 129.246 27.9804V27.4219C129.246 25.5604 129.642 23.9665 130.433 22.6402C131.224 21.3139 132.306 20.3017 133.679 19.6036C135.052 18.9057 136.599 18.5566 138.321 18.5566C140.043 18.5566 141.59 18.9057 142.963 19.6036C144.336 20.3017 145.418 21.3139 146.209 22.6402C147 23.9665 147.396 25.5604 147.396 27.4219V27.9804C147.396 29.8419 147 31.4358 146.209 32.7621C145.418 34.0884 144.336 35.1006 142.963 35.7985C141.59 36.4966 140.043 36.8457 138.321 36.8457ZM138.321 32.9365C139.67 32.9365 140.787 32.506 141.671 31.6452C142.556 30.7609 142.998 29.5044 142.998 27.8757V27.5266C142.998 25.8978 142.556 24.6529 141.671 23.7919C140.811 22.9078 139.694 22.4656 138.321 22.4656C136.971 22.4656 135.854 22.9078 134.97 23.7919C134.086 24.6529 133.644 25.8978 133.644 27.5266V27.8757C133.644 29.5044 134.086 30.7609 134.97 31.6452C135.854 32.506 136.971 32.9365 138.321 32.9365Z" fill="var(--fill-0, black)"/>
<path id="Vector_5" d="M149.884 36.3581V19.0463H154.282V36.3581H149.884ZM152.083 17.022C151.291 17.022 150.618 16.766 150.058 16.254C149.523 15.7422 149.256 15.0674 149.256 14.2297C149.256 13.3921 149.523 12.7173 150.058 12.2054C150.618 11.6935 151.291 11.4375 152.083 11.4375C152.898 11.4375 153.573 11.6935 154.107 12.2054C154.642 12.7173 154.911 13.3921 154.911 14.2297C154.911 15.0674 154.642 15.7422 154.107 16.254C153.573 16.766 152.898 17.022 152.083 17.022Z" fill="var(--fill-0, black)"/>
<path id="Vector_6" d="M157.588 43.3375V19.0452H161.915V21.1393H162.544C162.938 20.4646 163.555 19.8712 164.393 19.3593C165.23 18.8242 166.429 18.5566 167.989 18.5566C169.384 18.5566 170.675 18.9057 171.862 19.6036C173.05 20.2785 174.004 21.279 174.724 22.6053C175.445 23.9316 175.807 25.5372 175.807 27.4219V27.9804C175.807 29.8651 175.445 31.4706 174.724 32.7969C174.004 34.1232 173.05 35.1354 171.862 35.8335C170.675 36.5082 169.384 36.8457 167.989 36.8457C166.942 36.8457 166.057 36.7177 165.335 36.4617C164.638 36.229 164.068 35.9265 163.625 35.5542C163.207 35.1586 162.869 34.7631 162.613 34.3675H161.984V43.3375H157.588ZM166.661 33.0063C168.035 33.0063 169.163 32.5759 170.047 31.7149C170.954 30.8307 171.409 29.551 171.409 27.8757V27.5266C171.409 25.8513 170.954 24.5832 170.047 23.7222C169.139 22.8379 168.011 22.3959 166.661 22.3959C165.313 22.3959 164.183 22.8379 163.276 23.7222C162.368 24.5832 161.915 25.8513 161.915 27.5266V27.8757C161.915 29.551 162.368 30.8307 163.276 31.7149C164.183 32.5759 165.313 33.0063 166.661 33.0063Z" fill="var(--fill-0, black)"/>
<path id="Vector_7" d="M185.46 36.8459C183.203 36.8459 181.353 36.3572 179.91 35.3799C178.469 34.4027 177.596 33.0065 177.293 31.1916L181.341 30.1445C181.505 30.959 181.772 31.5987 182.145 32.0642C182.54 32.5295 183.017 32.867 183.576 33.0764C184.157 33.2625 184.785 33.3555 185.46 33.3555C186.485 33.3555 187.241 33.1811 187.728 32.832C188.217 32.4597 188.462 32.006 188.462 31.4708C188.462 30.9356 188.229 30.5285 187.764 30.2492C187.298 29.9468 186.554 29.7024 185.531 29.5163L184.553 29.3417C183.342 29.109 182.238 28.7949 181.238 28.3994C180.236 27.9806 179.433 27.4104 178.829 26.6891C178.224 25.9679 177.921 25.0371 177.921 23.897C177.921 22.175 178.55 20.8604 179.807 19.9529C181.062 19.0221 182.715 18.5568 184.763 18.5568C186.693 18.5568 188.3 18.9872 189.579 19.8482C190.859 20.7092 191.696 21.8376 192.092 23.2338L188.009 24.4902C187.823 23.6061 187.439 22.9778 186.857 22.6055C186.297 22.2332 185.6 22.047 184.763 22.047C183.924 22.047 183.285 22.1984 182.843 22.5008C182.4 22.7801 182.18 23.1756 182.18 23.6874C182.18 24.2459 182.412 24.6648 182.877 24.944C183.342 25.1999 183.971 25.3977 184.763 25.5374L185.739 25.7118C187.043 25.9445 188.217 26.2587 189.264 26.6543C190.335 27.0266 191.172 27.5733 191.778 28.2947C192.405 28.9928 192.72 29.9468 192.72 31.1567C192.72 32.9717 192.057 34.3794 190.731 35.3799C189.428 36.3572 187.671 36.8459 185.46 36.8459Z" fill="var(--fill-0, black)"/>
<path id="Vector_8" d="M201.602 36.637C200.252 36.637 199.065 36.3344 198.041 35.7295C197.04 35.1013 196.262 34.2403 195.702 33.1466C195.144 32.053 194.865 30.7966 194.865 29.3771V19.0459H199.263V29.0281C199.263 30.3311 199.577 31.3084 200.205 31.96C200.856 32.6114 201.776 32.9372 202.962 32.9372C204.312 32.9372 205.359 32.4952 206.103 31.6109C206.849 30.7034 207.221 29.4469 207.221 27.8414V19.0459H211.619V36.3577H207.29V34.0891H206.663C206.384 34.6708 205.859 35.2408 205.092 35.7992C204.324 36.3577 203.16 36.637 201.602 36.637Z" fill="var(--fill-0, black)"/>
<path id="Vector_9" d="M214.939 36.3576V19.0458H219.267V20.9305H219.895C220.198 20.3488 220.699 19.8486 221.397 19.4298C222.094 18.9876 223.014 18.7666 224.154 18.7666C225.387 18.7666 226.377 19.011 227.121 19.4995C227.865 19.965 228.435 20.5815 228.831 21.3495H229.459C229.855 20.6049 230.413 19.9882 231.135 19.4995C231.856 19.011 232.879 18.7666 234.205 18.7666C235.276 18.7666 236.242 18.9993 237.103 19.4647C237.987 19.9068 238.686 20.5932 239.197 21.5239C239.733 22.4314 240 23.5831 240 24.9793V36.3576H235.602V25.2934C235.602 24.3394 235.357 23.6298 234.87 23.1643C234.381 22.6758 233.694 22.4314 232.81 22.4314C231.81 22.4314 231.03 22.7571 230.472 23.4087C229.936 24.0369 229.669 24.9444 229.669 26.131V36.3576H225.271V25.2934C225.271 24.3394 225.027 23.6298 224.538 23.1643C224.049 22.6758 223.363 22.4314 222.478 22.4314C221.478 22.4314 220.698 22.7571 220.14 23.4087C219.604 24.0369 219.337 24.9444 219.337 26.131V36.3576H214.939Z" fill="var(--fill-0, black)"/>
<path id="Vector_10" d="M58.1689 23.2691C58.1689 17.0977 55.7173 11.1791 51.3535 6.81534C46.9897 2.45156 41.0712 8.09273e-07 34.8999 0C28.7286 -8.09271e-07 22.81 2.45156 18.4462 6.81534C14.0824 11.1791 11.6309 17.0977 11.6309 23.2691H18.9025C21.3121 23.2691 23.1913 21.2497 24.0739 19.0075C24.6534 17.5354 25.5327 16.1826 26.673 15.0422C28.8549 12.8603 31.8142 11.6345 34.8999 11.6345C37.9855 11.6345 40.9449 12.8603 43.1268 15.0422C45.3087 17.224 46.5343 20.1834 46.5343 23.2691H58.1689Z" fill="var(--fill-0, #737476)"/>
<path id="Vector_11" d="M44.7666 32.1741C45.936 29.351 46.538 26.3252 46.538 23.2695H58.1712C58.1712 36.1206 47.7533 46.5384 34.9022 46.5384C32.8896 46.5384 30.9366 46.283 29.0742 45.8027C30.128 45.5312 31.1637 45.1854 32.1735 44.7672C34.9967 43.5978 37.5618 41.8839 39.7226 39.7232C41.8833 37.5624 43.5974 34.9973 44.7666 32.1741Z" fill="var(--fill-0, #737476)"/>
<path id="Vector_12" d="M0 23.2686C-4.37149e-07 26.3244 0.601871 29.3502 1.77125 32.1733C2.94063 34.9965 4.65461 37.5616 6.81534 39.7224C8.97606 41.883 11.5412 43.597 14.3643 44.7664C17.1874 45.9358 20.2133 46.5376 23.2691 46.5376C26.3247 46.5376 29.3505 45.9358 32.1737 44.7664C34.9968 43.597 37.562 41.883 39.7227 39.7224C41.8835 37.5616 43.5973 34.9965 44.7667 32.1733C45.9361 29.3502 46.5381 26.3244 46.5381 23.2686H39.2664C36.8568 23.2686 34.9776 25.2879 34.095 27.5299C34.0699 27.5938 34.0442 27.6574 34.0179 27.721C33.4332 29.1325 32.5763 30.4152 31.4958 31.4955C30.4155 32.5758 29.1328 33.4329 27.7213 34.0176C26.3098 34.6023 24.797 34.9032 23.2691 34.9032C21.7412 34.9032 20.2283 34.6023 18.8168 34.0176C17.4051 33.4329 16.1226 32.5758 15.0422 31.4955C13.9618 30.4152 13.1048 29.1325 12.5201 27.721C11.9354 26.3094 11.6345 24.7965 11.6345 23.2686H0Z" fill="var(--fill-0, #737476)"/>
<path id="Vector_13" d="M0.00585938 23.2691C0.00585938 10.4179 10.4237 0 23.2748 0C25.2869 0 27.2393 0.255369 29.1015 0.735485C25.1057 1.76485 21.4196 3.84803 18.4521 6.81536C14.0884 11.1791 11.6368 17.0977 11.6368 23.2691H0.00585938Z" fill="var(--fill-0, #737476)"/>
</g>
</svg>
