<svg preserveAspectRatio="none" width="100%" height="100%" overflow="visible" style="display: block;" viewBox="0 0 199 48" fill="none" xmlns="http://www.w3.org/2000/svg">
<g id="11" clip-path="url(#clip0_0_22)">
<path id="Vector" d="M60.0254 34.33H74.0163V30.1154H64.9981V14.2402H60.0254V34.33Z" fill="var(--fill-0, black)"/>
<path id="Vector_2" d="M82.3064 31.5194C80.3117 31.5194 79.2722 29.7773 79.2722 27.1642C79.2722 24.5512 80.3117 22.781 82.3064 22.781C84.3011 22.781 85.3686 24.5512 85.3686 27.1642C85.3686 29.7773 84.3011 31.5194 82.3064 31.5194ZM82.3345 34.7787C86.97 34.7787 90.0042 31.4913 90.0042 27.1642C90.0042 22.8372 86.97 19.5498 82.3345 19.5498C77.727 19.5498 74.6367 22.8372 74.6367 27.1642C74.6367 31.4913 77.727 34.7787 82.3345 34.7787Z" fill="var(--fill-0, black)"/>
<path id="Vector_3" d="M98.024 39.3022C100.159 39.3022 102.041 38.8245 103.306 37.7006C104.458 36.661 105.216 35.0875 105.216 32.924V19.9429H100.833V21.4883H100.777C99.9344 20.2801 98.642 19.5215 96.7316 19.5215C93.1637 19.5215 90.6914 22.4998 90.6914 26.7145C90.6914 31.1258 93.6975 33.5422 96.9283 33.5422C98.6701 33.5422 99.7658 32.8397 100.609 31.8844H100.721V33.3174C100.721 35.0594 99.9063 36.0709 97.9678 36.0709C96.4507 36.0709 95.6922 35.4247 95.4393 34.6661H91.0004C91.4499 37.6725 94.0627 39.3022 98.024 39.3022ZM97.9959 30.1424C96.2821 30.1424 95.1584 28.7375 95.1584 26.574C95.1584 24.3824 96.2821 22.9775 97.9959 22.9775C99.9063 22.9775 100.918 24.6071 100.918 26.5459C100.918 28.5689 99.9906 30.1424 97.9959 30.1424Z" fill="var(--fill-0, black)"/>
<path id="Vector_4" d="M114.23 31.5194C112.235 31.5194 111.196 29.7773 111.196 27.1642C111.196 24.5512 112.235 22.781 114.23 22.781C116.225 22.781 117.292 24.5512 117.292 27.1642C117.292 29.7773 116.225 31.5194 114.23 31.5194ZM114.258 34.7787C118.893 34.7787 121.927 31.4913 121.927 27.1642C121.927 22.8372 118.893 19.5498 114.258 19.5498C109.651 19.5498 106.56 22.8372 106.56 27.1642C106.56 31.4913 109.651 34.7787 114.258 34.7787Z" fill="var(--fill-0, black)"/>
<path id="Vector_5" d="M123.264 34.33H127.843V19.944H123.264V34.33ZM123.264 17.9491H127.843V14.2402H123.264V17.9491Z" fill="var(--fill-0, black)"/>
<path id="Vector_6" d="M129.834 39.0774H134.413V32.8397H134.47C135.369 34.0479 136.689 34.7785 138.543 34.7785C142.308 34.7785 144.808 31.8001 144.808 27.1359C144.808 22.8089 142.476 19.5215 138.656 19.5215C136.689 19.5215 135.284 20.3925 134.301 21.685H134.217V19.9429H129.834V39.0774ZM137.363 31.2382C135.397 31.2382 134.273 29.6366 134.273 27.3045C134.273 24.9724 135.284 23.2023 137.279 23.2023C139.246 23.2023 140.173 24.8319 140.173 27.3045C140.173 29.749 139.105 31.2382 137.363 31.2382Z" fill="var(--fill-0, black)"/>
<path id="Vector_7" d="M152.259 34.7785C156.024 34.7785 158.805 33.1488 158.805 30.0019C158.805 26.3211 155.827 25.6748 153.299 25.2534C151.472 24.9162 149.843 24.7757 149.843 23.7642C149.843 22.8651 150.714 22.4436 151.838 22.4436C153.102 22.4436 153.973 22.837 154.141 24.1295H158.356C158.131 21.2916 155.939 19.5215 151.866 19.5215C148.466 19.5215 145.657 21.0949 145.657 24.1295C145.657 27.5012 148.326 28.1755 150.826 28.597C152.737 28.9342 154.479 29.0747 154.479 30.3671C154.479 31.2944 153.608 31.8001 152.231 31.8001C150.714 31.8001 149.759 31.0977 149.59 29.6647H145.264C145.404 32.8397 148.045 34.7785 152.259 34.7785Z" fill="var(--fill-0, black)"/>
<path id="Vector_8" d="M165.026 34.7508C167.02 34.7508 168.285 33.964 169.324 32.5592H169.408V34.3293H173.791V19.9434H169.212V27.9793C169.212 29.6932 168.257 30.8733 166.683 30.8733C165.222 30.8733 164.52 30.0023 164.52 28.4288V19.9434H159.969V29.3841C159.969 32.5873 161.711 34.7508 165.026 34.7508Z" fill="var(--fill-0, black)"/>
<path id="Vector_9" d="M175.785 34.3289H180.365V26.2649C180.365 24.5509 181.207 23.3428 182.64 23.3428C184.017 23.3428 184.663 24.2419 184.663 25.7872V34.3289H189.242V26.2649C189.242 24.5509 190.057 23.3428 191.518 23.3428C192.894 23.3428 193.541 24.2419 193.541 25.7872V34.3289H198.12V24.9724C198.12 21.7412 196.491 19.5215 193.232 19.5215C191.377 19.5215 189.832 20.3082 188.708 22.0503H188.652C187.922 20.5049 186.489 19.5215 184.607 19.5215C182.528 19.5215 181.151 20.5049 180.252 21.9941H180.168V19.9429H175.785V34.3289Z" fill="var(--fill-0, black)"/>
<path id="Vector_10" fill-rule="evenodd" clip-rule="evenodd" d="M23.5289 47.2071C36.459 47.2071 46.9407 36.7241 46.9407 23.7925C46.9407 10.861 36.459 0.37793 23.5289 0.37793C10.599 0.37793 0.117188 10.861 0.117188 23.7925C0.117188 36.7241 10.599 47.2071 23.5289 47.2071ZM27.1425 18.4687C29.1381 16.4727 29.1381 13.2367 27.1425 11.2407C25.1468 9.24479 21.9112 9.24479 19.9154 11.2407C17.9198 13.2367 17.9198 16.4727 19.9154 18.4687L23.5289 22.0827L27.1425 18.4687ZM28.8522 27.4066C30.8479 29.4025 34.0835 29.4025 36.0792 27.4066C38.0749 25.4106 38.0749 22.1746 36.0792 20.1786C34.0835 18.1827 30.8479 18.1827 28.8522 20.1786L25.2387 23.7926L28.8522 27.4066ZM27.1425 36.3444C29.1381 34.3484 29.1381 31.1124 27.1425 29.1164L23.5289 25.5025L19.9154 29.1164C17.9198 31.1124 17.9198 34.3484 19.9154 36.3444C21.9112 38.3404 25.1468 38.3404 27.1425 36.3444ZM10.9786 27.4066C8.98298 25.4106 8.98298 22.1746 10.9786 20.1786C12.9744 18.1827 16.21 18.1827 18.2058 20.1786L21.8193 23.7926L18.2058 27.4066C16.21 29.4025 12.9744 29.4025 10.9786 27.4066Z" fill="var(--fill-0, #737476)"/>
</g>
<defs>
<clipPath id="clip0_0_22">
<rect width="199" height="48" fill="white"/>
</clipPath>
</defs>
</svg>
