<svg preserveAspectRatio="none" width="100%" height="100%" overflow="visible" style="display: block;" viewBox="0 0 202 48" fill="none" xmlns="http://www.w3.org/2000/svg">
<g id="Fictional company logo">
<g id="Logomark">
<path id="Shape" fill-rule="evenodd" clip-rule="evenodd" d="M0 24C13.9836 24 22 15.9836 22 2C22 15.9836 30.0164 24 44 24C30.0164 24 22 32.0164 22 46C22 32.0164 13.9836 24 0 24Z" fill="var(--fill-0, black)"/>
</g>
<g id="Logotype">
<path d="M52.6895 33.9088L60.3695 12.9088H64.6895L72.3695 33.9088H68.2895L66.6095 29.0488H58.4195L56.7095 33.9088H52.6895ZM59.4695 26.0488H65.5595L62.4995 17.3188L59.4695 26.0488Z" fill="var(--fill-0, black)"/>
<path d="M80.0715 34.2688C78.5515 34.2688 77.2115 33.9388 76.0515 33.2788C74.8915 32.6188 73.9715 31.6988 73.2915 30.5188C72.6315 29.3388 72.3015 27.9888 72.3015 26.4688C72.3015 24.9488 72.6315 23.5988 73.2915 22.4188C73.9715 21.2388 74.8915 20.3188 76.0515 19.6588C77.2115 18.9988 78.5515 18.6688 80.0715 18.6688C81.9715 18.6688 83.5715 19.1688 84.8715 20.1688C86.1715 21.1488 87.0015 22.5088 87.3615 24.2488H83.3115C83.1115 23.5288 82.7115 22.9688 82.1115 22.5688C81.5315 22.1488 80.8415 21.9388 80.0415 21.9388C78.9815 21.9388 78.0815 22.3388 77.3415 23.1388C76.6015 23.9388 76.2315 25.0488 76.2315 26.4688C76.2315 27.8888 76.6015 28.9988 77.3415 29.7988C78.0815 30.5988 78.9815 30.9988 80.0415 30.9988C80.8415 30.9988 81.5315 30.7988 82.1115 30.3988C82.7115 29.9988 83.1115 29.4288 83.3115 28.6888H87.3615C87.0015 30.3688 86.1715 31.7188 84.8715 32.7388C83.5715 33.7588 81.9715 34.2688 80.0715 34.2688Z" fill="var(--fill-0, black)"/>
<path d="M89.2698 33.9088V19.0288H92.6598L92.9898 21.0388C93.4698 20.3188 94.0998 19.7488 94.8798 19.3288C95.6798 18.8888 96.5998 18.6688 97.6398 18.6688C99.9398 18.6688 101.57 19.5588 102.53 21.3388C103.07 20.5188 103.79 19.8688 104.69 19.3888C105.61 18.9088 106.61 18.6688 107.69 18.6688C109.63 18.6688 111.12 19.2488 112.16 20.4088C113.2 21.5688 113.72 23.2688 113.72 25.5088V33.9088H109.88V25.8688C109.88 24.5888 109.63 23.6088 109.13 22.9288C108.65 22.2488 107.9 21.9088 106.88 21.9088C105.84 21.9088 105 22.2888 104.36 23.0488C103.74 23.8088 103.43 24.8688 103.43 26.2288V33.9088H99.5898V25.8688C99.5898 24.5888 99.3398 23.6088 98.8398 22.9288C98.3398 22.2488 97.5698 21.9088 96.5298 21.9088C95.5098 21.9088 94.6798 22.2888 94.0398 23.0488C93.4198 23.8088 93.1098 24.8688 93.1098 26.2288V33.9088H89.2698Z" fill="var(--fill-0, black)"/>
<path d="M123.095 34.2688C121.595 34.2688 120.265 33.9488 119.105 33.3088C117.945 32.6688 117.035 31.7688 116.375 30.6088C115.715 29.4488 115.385 28.1088 115.385 26.5888C115.385 25.0488 115.705 23.6788 116.345 22.4788C117.005 21.2788 117.905 20.3488 119.045 19.6888C120.205 19.0088 121.565 18.6688 123.125 18.6688C124.585 18.6688 125.875 18.9888 126.995 19.6288C128.115 20.2688 128.985 21.1488 129.605 22.2688C130.245 23.3688 130.565 24.5988 130.565 25.9588C130.565 26.1788 130.555 26.4088 130.535 26.6488C130.535 26.8888 130.525 27.1388 130.505 27.3988H119.195C119.275 28.5588 119.675 29.4688 120.395 30.1288C121.135 30.7888 122.025 31.1188 123.065 31.1188C123.845 31.1188 124.495 30.9488 125.015 30.6088C125.555 30.2488 125.955 29.7888 126.215 29.2288H130.115C129.835 30.1688 129.365 31.0288 128.705 31.8088C128.065 32.5688 127.265 33.1688 126.305 33.6088C125.365 34.0488 124.295 34.2688 123.095 34.2688ZM123.125 21.7888C122.185 21.7888 121.355 22.0588 120.635 22.5988C119.915 23.1188 119.455 23.9188 119.255 24.9988H126.665C126.605 24.0188 126.245 23.2388 125.585 22.6588C124.925 22.0788 124.105 21.7888 123.125 21.7888Z" fill="var(--fill-0, black)"/>
<path d="M147.544 34.2688C145.424 34.2688 143.604 33.8188 142.084 32.9188C140.564 31.9988 139.394 30.7288 138.574 29.1088C137.754 27.4688 137.344 25.5788 137.344 23.4388C137.344 21.2988 137.754 19.4088 138.574 17.7688C139.394 16.1288 140.564 14.8488 142.084 13.9288C143.604 13.0088 145.424 12.5488 147.544 12.5488C150.064 12.5488 152.124 13.1788 153.724 14.4388C155.344 15.6788 156.354 17.4288 156.754 19.6888H152.524C152.264 18.5488 151.704 17.6588 150.844 17.0188C150.004 16.3588 148.884 16.0288 147.484 16.0288C145.544 16.0288 144.024 16.6888 142.924 18.0088C141.824 19.3288 141.274 21.1388 141.274 23.4388C141.274 25.7388 141.824 27.5488 142.924 28.8688C144.024 30.1688 145.544 30.8188 147.484 30.8188C148.884 30.8188 150.004 30.5188 150.844 29.9188C151.704 29.2988 152.264 28.4488 152.524 27.3688H156.754C156.354 29.5288 155.344 31.2188 153.724 32.4388C152.124 33.6588 150.064 34.2688 147.544 34.2688Z" fill="var(--fill-0, black)"/>
<path d="M165.703 34.2688C164.263 34.2688 162.963 33.9388 161.803 33.2788C160.663 32.6188 159.753 31.7088 159.073 30.5488C158.413 29.3688 158.083 28.0088 158.083 26.4688C158.083 24.9288 158.423 23.5788 159.103 22.4188C159.783 21.2388 160.693 20.3188 161.833 19.6588C162.993 18.9988 164.293 18.6688 165.733 18.6688C167.153 18.6688 168.433 18.9988 169.573 19.6588C170.733 20.3188 171.643 21.2388 172.303 22.4188C172.983 23.5788 173.323 24.9288 173.323 26.4688C173.323 28.0088 172.983 29.3688 172.303 30.5488C171.643 31.7088 170.733 32.6188 169.573 33.2788C168.413 33.9388 167.123 34.2688 165.703 34.2688ZM165.703 30.9388C166.703 30.9388 167.573 30.5688 168.313 29.8288C169.053 29.0688 169.423 27.9488 169.423 26.4688C169.423 24.9888 169.053 23.8788 168.313 23.1388C167.573 22.3788 166.713 21.9988 165.733 21.9988C164.713 21.9988 163.833 22.3788 163.093 23.1388C162.373 23.8788 162.013 24.9888 162.013 26.4688C162.013 27.9488 162.373 29.0688 163.093 29.8288C163.833 30.5688 164.703 30.9388 165.703 30.9388Z" fill="var(--fill-0, black)"/>
<path d="M175.256 33.9088V19.0288H178.676L179.036 21.8188C179.576 20.8588 180.306 20.0988 181.226 19.5388C182.166 18.9588 183.266 18.6688 184.526 18.6688V22.7188H183.446C182.606 22.7188 181.856 22.8488 181.196 23.1088C180.536 23.3688 180.016 23.8188 179.636 24.4588C179.276 25.0988 179.096 25.9888 179.096 27.1288V33.9088H175.256Z" fill="var(--fill-0, black)"/>
<path d="M185.651 40.5088V19.0288H189.071L189.491 21.1588C189.971 20.4988 190.601 19.9188 191.381 19.4188C192.181 18.9188 193.211 18.6688 194.471 18.6688C195.871 18.6688 197.121 19.0088 198.221 19.6888C199.321 20.3688 200.191 21.2988 200.831 22.4788C201.471 23.6588 201.791 24.9988 201.791 26.4988C201.791 27.9988 201.471 29.3388 200.831 30.5188C200.191 31.6788 199.321 32.5988 198.221 33.2788C197.121 33.9388 195.871 34.2688 194.471 34.2688C193.351 34.2688 192.371 34.0588 191.531 33.6388C190.691 33.2188 190.011 32.6288 189.491 31.8688V40.5088H185.651ZM193.661 30.9088C194.881 30.9088 195.891 30.4988 196.691 29.6788C197.491 28.8588 197.891 27.7988 197.891 26.4988C197.891 25.1988 197.491 24.1288 196.691 23.2888C195.891 22.4488 194.881 22.0288 193.661 22.0288C192.421 22.0288 191.401 22.4488 190.601 23.2888C189.821 24.1088 189.431 25.1688 189.431 26.4688C189.431 27.7688 189.821 28.8388 190.601 29.6788C191.401 30.4988 192.421 30.9088 193.661 30.9088Z" fill="var(--fill-0, black)"/>
</g>
</g>
</svg>
