<svg preserveAspectRatio="none" width="100%" height="100%" overflow="visible" style="display: block;" viewBox="0 0 11 14" fill="none" xmlns="http://www.w3.org/2000/svg">
<g id="Icon">
<g id="Vector">
<path d="M5.5 7.5C6.60457 7.5 7.5 6.60457 7.5 5.5C7.5 4.39543 6.60457 3.5 5.5 3.5C4.39543 3.5 3.5 4.39543 3.5 5.5C3.5 6.60457 4.39543 7.5 5.5 7.5Z" stroke="var(--stroke-0, #737476)" stroke-linecap="round" stroke-linejoin="round"/>
<path d="M10.5 5.5C10.5 10 5.5 13.5 5.5 13.5C5.5 13.5 0.5 10 0.5 5.5C0.5 4.17392 1.02678 2.90215 1.96447 1.96447C2.90215 1.02678 4.17392 0.5 5.5 0.5C6.82608 0.5 8.09785 1.02678 9.03553 1.96447C9.97322 2.90215 10.5 4.17392 10.5 5.5Z" stroke="var(--stroke-0, #737476)" stroke-linecap="round" stroke-linejoin="round"/>
</g>
</g>
</svg>
