<svg preserveAspectRatio="none" width="100%" height="100%" overflow="visible" style="display: block;" viewBox="0 0 15 12.5" fill="none" xmlns="http://www.w3.org/2000/svg">
<g id="Icon">
<path id="Vector" d="M0.5 12H14.5M13.4996 12V5C13.4996 4.86739 13.447 4.74022 13.3532 4.64645C13.2594 4.55268 13.1322 4.5 12.9996 4.5H8.49963M10.4996 9.5H11.4996M8.49963 12V1C8.49963 0.867392 8.44696 0.740215 8.35319 0.646447C8.25942 0.552678 8.13224 0.5 7.99963 0.5H1.99963C1.86703 0.5 1.73985 0.552678 1.64608 0.646447C1.55231 0.740215 1.49963 0.867392 1.49963 1V12M3.49963 9.5H5.49963M10.4996 7H11.4996M4.49963 7H6.49963M3.49963 3H5.49963" stroke="var(--stroke-0, #737476)" stroke-linecap="round" stroke-linejoin="round"/>
</g>
</svg>
