<svg preserveAspectRatio="none" width="100%" height="100%" overflow="visible" style="display: block;" viewBox="0 0 45 37.5" fill="none" xmlns="http://www.w3.org/2000/svg">
<g id="Icon">
<path id="Vector" d="M1.5 36H43.5M40.4989 36V15C40.4989 14.6022 40.3409 14.2206 40.0596 13.9393C39.7783 13.658 39.3967 13.5 38.9989 13.5H25.4989M31.4989 28.5H34.4989M25.4989 36V3C25.4989 2.60217 25.3409 2.22064 25.0596 1.93934C24.7783 1.65804 24.3967 1.5 23.9989 1.5H5.9989C5.60108 1.5 5.21955 1.65804 4.93824 1.93934C4.65694 2.22064 4.4989 2.60217 4.4989 3V36M10.4989 28.5H16.4989M31.4989 21H34.4989M13.4989 21H19.4989M10.4989 9H16.4989" stroke="var(--stroke-0, black)" stroke-width="3" stroke-linecap="round" stroke-linejoin="round"/>
</g>
</svg>
