<svg preserveAspectRatio="none" width="100%" height="100%" overflow="visible" style="display: block;" viewBox="0 0 256 253.081" fill="none" xmlns="http://www.w3.org/2000/svg">
<g id="Group 2087326752">
<g id="Vector">
<path d="M156.494 74.2641C156.776 73.1501 156.596 68.8112 156.663 67.3319C157.084 57.9494 156.746 48.4266 156.85 39.0237C156.889 35.4779 156.805 31.8771 156.742 28.3303C156.734 27.871 156.845 27.4704 157.048 27.1103C158 25.4169 157.91 24.6265 157.995 22.9671C158.108 20.7785 161.6 20.5196 162.978 19.8262C162.797 19.9175 163.665 19.2483 163.594 19.3039C164.078 19.8861 163.888 27.4547 163.887 28.6775L163.805 47.1449C163.803 48.361 163.549 52.4996 164.034 53.3693L164.038 132.988C164.029 143.228 163.812 154.344 164.041 164.535C179.19 155.652 190.631 139.157 194.793 122.226C199.221 104.216 196.421 85.4603 186.999 69.4751C183.471 63.4907 177.14 55.8461 171.347 52.1958C171.363 49.2688 171.322 46.1164 171.4 43.2076C173.297 43.8531 174.824 44.6891 176.198 46.1907C178.789 49.0208 182.061 51.5817 184.56 54.4373C202.969 75.4638 208.913 103.875 199.622 130.356C194.139 145.984 185.621 157.75 172.523 167.91C166.585 172.526 163.933 174.634 156.456 176.686L156.46 85.2616C156.46 82.2989 156.292 77.0513 156.494 74.2641Z" fill="var(--fill-0, white)"/>
<path d="M105.005 31.5402C106.319 33.6268 106.024 36.6264 104.436 38.4263C103.802 39.145 103.633 39.6919 102.737 40.1607C103.177 40.0528 103.573 40.0109 104.021 39.9477C102.959 40.6856 101.754 41.3127 100.617 41.9387C99.1012 42.8573 96.4574 44.1772 94.7174 44.7046C94.06 45.7337 94.818 86.5119 94.4061 91.68C94.6251 96.1853 94.4054 102.577 94.3997 107.206L94.3729 137.883L94.3323 158.083C94.3367 163.357 94.5404 168.811 93.83 174.014C84.7478 170.176 73.6431 160.067 67.7384 152.284C55.4573 136.226 49.5258 115.148 52.368 95.0504C54.989 76.5182 64.7871 57.6856 79.8555 46.3275C79.7716 48.688 79.6579 54.5584 78.9954 56.6037C78.3973 58.4502 74.3843 61.5076 72.8942 63.422C68.0865 69.5983 64.2317 77.4456 62.0263 84.9063C56.5253 102.991 58.4581 122.523 67.3969 139.178C70.6742 145.189 80.6811 159.204 87.2855 161.152C87.2725 157.67 87.422 154.142 87.4437 150.644L87.5673 118.131L87.5919 85.4915C87.597 79.6315 87.5267 73.5735 87.638 67.7275C87.8291 67.0178 87.7978 59.3659 87.7709 57.8991C87.6668 52.2017 87.91 46.2054 87.7712 40.5559C93.3203 38.838 100.152 34.7978 105.005 31.5402Z" fill="var(--fill-0, white)"/>
<path d="M94.4061 91.68C93.9941 90.326 94.4068 80.6467 94.2442 78.5416C94.1945 77.8975 94.3149 76.2985 94.1403 75.6681C93.9746 75.9488 93.9715 75.9353 93.7207 76.1492C93.4901 75.7575 93.5595 74.9056 93.5586 74.4053C93.7204 74.2414 93.7975 74.1708 93.9799 74.0202L94.1407 73.8896C94.3453 71.6421 94.1731 67.6396 94.1877 65.2302C94.1943 64.1088 92.5316 64.704 92.2061 63.0423C92.3892 62.4724 92.8933 61.8135 93.2411 61.2979L93.4627 61.2733L93.4621 61.621C93.9355 61.4842 93.7142 61.4761 94.1475 61.5798C94.3392 59.2167 93.9852 45.6398 94.3746 44.6733L94.7174 44.7046C94.06 45.7337 94.818 86.5119 94.4061 91.68Z" fill="var(--fill-0, white)"/>
<path d="M102.737 40.1607C103.177 40.0528 103.573 40.0109 104.021 39.9477C102.959 40.6856 101.754 41.3127 100.617 41.9387L100.424 41.6527C100.906 41.0778 102.052 40.5028 102.737 40.1607Z" fill="var(--fill-0, white)"/>
<path d="M128.761 4.44055e-05C130.828 1.28946 134.493 3.03324 136.782 4.236C142.962 7.45598 149.094 10.7679 155.176 14.1708C157.696 15.5699 161.745 17.6661 164.055 19.2243L164.034 53.3693C163.549 52.4996 163.803 48.361 163.805 47.1449L163.887 28.6775C163.888 27.4547 164.078 19.8861 163.594 19.3039C163.665 19.2483 162.797 19.9175 162.978 19.8262C161.6 20.5196 158.108 20.7785 157.995 22.9671C157.91 24.6265 158 25.4169 157.048 27.1103C156.845 27.4704 156.734 27.871 156.742 28.3303C156.805 31.8771 156.889 35.4779 156.85 39.0237C156.746 48.4266 157.084 57.9494 156.663 67.3319C156.596 68.8112 156.776 73.1501 156.494 74.2641C156.302 68.8618 156.471 62.3118 156.471 56.8082L156.448 23.2134C149.021 20.0422 144.058 15.9859 136.184 13.2342C136.162 15.2313 136.144 17.1466 136.028 19.1401C136.043 26.7819 136.008 34.4237 135.925 42.0652C135.916 45.4307 136.128 51.337 135.914 54.4829C136.07 56.8509 135.983 59.9923 135.973 62.4035L135.915 76.1065C135.908 82.9408 136.297 91.475 136.013 98.1109C136.235 115.95 136.352 133.791 136.364 151.631C136.378 157.93 136.328 164.23 136.215 170.527C136.161 173.538 136.12 178.676 135.744 181.58C133.398 182.783 131.087 182.669 128.48 182.644C128.894 164.934 128.662 146.47 128.684 128.726L128.716 114.14C128.721 111.934 128.633 108.743 128.752 106.604C128.559 105.656 128.721 99.8813 128.728 98.439L128.716 79.3891L128.761 4.44055e-05Z" fill="var(--fill-0, white)"/>
<path d="M136.028 19.1401C136.043 26.7819 136.008 34.4237 135.925 42.0652C135.916 45.4307 136.128 51.337 135.914 54.4829C135.795 55.4761 135.847 56.6942 135.708 57.9067C135.483 56.9149 135.562 49.6951 135.564 48.1055C135.541 41.6647 135.598 35.224 135.734 28.7845C135.756 27.0251 135.757 20.6905 136.028 19.1401Z" fill="var(--fill-0, white)"/>
<path d="M87.5795 40.2743C99.7017 36.5026 108.72 26.8644 121.83 22.776L121.742 105.93C121.743 108.86 121.875 113.287 121.664 116.067C121.786 117.916 121.72 120.278 121.721 122.189L121.711 166.279C121.712 171.482 121.616 177.189 121.752 182.369C119.648 182.09 116.55 181.516 114.587 181.357L114.637 140.563C114.646 134.183 114.483 127.018 114.682 120.69C114.518 119.448 114.607 113.966 114.607 112.405L114.552 34.7087C109.944 36.1914 107.985 37.9707 104.021 39.9477C103.573 40.0109 103.177 40.0528 102.737 40.1607C103.633 39.6919 103.802 39.145 104.436 38.4263C106.024 36.6264 106.319 33.6268 105.005 31.5402C100.152 34.7978 93.3203 38.838 87.7712 40.5559C87.91 46.2054 87.6668 52.2017 87.7709 57.8991C87.7978 59.3659 87.8291 67.0178 87.638 67.7275C87.5229 58.6378 87.567 49.3709 87.5795 40.2743Z" fill="var(--fill-0, white)"/>
<path d="M142.67 23.6424C144.958 24.9052 147.589 26.4344 149.933 27.5313L149.922 172.192C149.92 173.638 149.988 176.423 149.841 177.743L149.832 179.317C147.323 179.9 144.929 180.454 142.39 180.93C142.689 178.232 142.536 172.311 142.542 169.309L142.696 70.4951C142.591 67.3369 142.613 64.0259 142.647 60.8576C142.775 48.4712 142.492 36.0221 142.67 23.6424Z" fill="var(--fill-0, white)"/>
<path d="M142.67 23.6424C144.958 24.9052 147.589 26.4344 149.933 27.5313L149.922 172.192C149.92 173.638 149.988 176.423 149.841 177.743C149.674 175.761 149.79 171.42 149.792 169.326L149.801 152.876L149.753 77.1265L149.591 49.7708C149.577 47.938 149.934 38.2595 149.295 37.4845C148.238 38.4474 147.079 39.4049 145.983 40.3256C145.18 40.9993 145.5 41.6765 144.909 42.2522L144.629 42.0699C144.483 42.7465 143.645 44.4803 143.461 45.3931C143.283 46.2665 143.468 46.3233 143.292 47.1103L143.041 47.1899L142.931 46.9468C142.746 52.3157 143.048 57.8173 142.919 63.193C142.871 65.2364 143.137 68.5653 142.696 70.4951C142.591 67.3369 142.613 64.0259 142.647 60.8576C142.775 48.4712 142.492 36.0221 142.67 23.6424Z" fill="var(--fill-0, white)"/>
<path d="M100.878 49.2644C103.316 48.0898 105.622 47.0692 108.041 45.8179L108.018 87.1993C108.016 88.3622 108.057 91.2372 107.896 92.3414C107.992 100.26 107.896 108.32 107.892 116.255L107.882 179.707C105.685 178.958 102.783 177.686 100.762 177.123L100.764 108.677C100.764 105.981 100.666 102.55 100.781 99.8951C100.549 94.0525 100.659 85.9287 100.782 80.0074C100.67 78.2158 100.752 75.3973 100.752 73.5401L100.749 61.038C100.749 59.3845 100.655 50.2699 100.878 49.2644Z" fill="var(--fill-0, white)"/>
</g>
<g id="Vector_2">
<path d="M185.682 204.688L192.059 204.674C195.647 210.396 200.362 216.93 204.24 222.613C204.129 216.755 204.219 210.615 204.228 204.734L209.67 204.669C209.688 212.993 209.806 221.796 209.648 230.089L209.36 230.303C207.485 230.256 205.61 230.251 203.735 230.29C199.727 224.201 194.889 217.918 191.092 211.828C191.236 217.791 191.136 224.267 191.119 230.258C189.307 230.259 187.495 230.276 185.685 230.309L185.682 204.688Z" fill="var(--fill-0, white)"/>
<path d="M62.7479 204.742L68.2546 204.675L68.2684 221.056C68.2684 223.662 68.3835 227.656 68.2005 230.108C67.6938 230.388 67.592 230.276 66.9169 230.273C65.4329 230.224 63.8051 230.273 62.3102 230.289C58.7168 224.29 53.6422 218.038 49.9988 211.778C50.0716 217.91 50.0077 224.159 50.0032 230.296C48.2045 230.245 46.4046 230.247 44.6059 230.299C44.6101 222.833 44.5887 215.366 44.5864 207.899C44.5862 207.252 44.4823 205.153 44.8308 204.757L45.5625 204.714L51.0216 204.684C52.2205 206.729 54.019 209.24 55.3721 211.254C57.9528 215.03 60.4396 218.869 62.8302 222.768C62.6529 216.851 62.7418 210.677 62.7479 204.742Z" fill="var(--fill-0, white)"/>
<path fill-rule="evenodd" clip-rule="evenodd" d="M2.2666 204.645C1.45095 204.672 0.703845 204.696 0.0575704 204.701C-0.0215031 210.74 -0.00220261 216.856 0.0170979 222.944C0.0249351 225.4 0.0326553 227.851 0.033942 230.29C0.472473 230.286 0.92504 230.278 1.38451 230.271C2.79286 230.249 4.26566 230.225 5.59365 230.273L5.60336 220.434C5.74841 220.436 5.89217 220.436 6.03441 220.436C7.32929 220.439 8.49738 220.441 9.41 221.505C10.7208 223.032 11.832 224.929 12.9225 226.791C13.6291 227.998 14.3271 229.189 15.0652 230.256L17.1361 230.258L21.5276 230.231C21.0739 229.535 20.6307 228.832 20.1876 228.13C19.7379 227.418 19.2882 226.705 18.8279 225.999C18.4968 225.491 18.1893 224.994 17.8903 224.511C16.4811 222.233 15.2613 220.262 12.6506 218.874C14.6087 218.142 17.1637 216.936 17.8887 214.856C21.6717 204.004 9.36965 204.41 2.2666 204.645ZM6.20086 208.829L6.20823 208.829C8.84737 208.727 12.5807 208.582 12.7305 212.091C12.79 213.487 12.4118 214.262 11.4725 215.273C9.645 216.385 8.32824 216.385 6.43551 216.385C6.28824 216.385 6.13746 216.385 5.9827 216.385C5.84339 216.386 5.70092 216.387 5.55482 216.389C5.60055 214.621 5.60383 212.807 5.60699 211.011C5.60827 210.287 5.60956 209.565 5.61366 208.85C5.80151 208.845 5.99803 208.837 6.20086 208.829Z" fill="var(--fill-0, white)"/>
<path fill-rule="evenodd" clip-rule="evenodd" d="M6.20823 208.829C6.02984 208.836 5.85637 208.843 5.68934 208.848C5.85403 208.843 6.02517 208.836 6.20086 208.829L6.20823 208.829Z" fill="white"/>
<path fill-rule="evenodd" clip-rule="evenodd" d="M170.852 204.68C169.68 204.68 168.482 204.68 167.354 204.718L165.27 204.714L158.6 222.531C158.326 223.26 158.04 224.044 157.746 224.847C157.071 226.695 156.358 228.646 155.677 230.272C157.78 230.264 159.881 230.268 161.984 230.286L163.826 224.597L173.387 224.617C174.018 226.489 174.621 228.371 175.195 230.264C175.723 230.263 176.268 230.266 176.821 230.268C178.396 230.275 180.034 230.282 181.523 230.216C180.192 226.146 178.609 221.999 177.029 217.862C175.333 213.419 173.642 208.988 172.271 204.677C171.807 204.679 171.332 204.679 170.852 204.68ZM168.559 209.079C168.771 209.426 171.816 219.419 172.059 220.417L168.754 220.441C167.524 220.44 166.296 220.449 165.066 220.466C165.344 219.58 165.669 218.585 166.009 217.542C166.938 214.694 167.987 211.478 168.559 209.079Z" fill="var(--fill-0, white)"/>
<path fill-rule="evenodd" clip-rule="evenodd" d="M85.202 204.702C84.1691 204.7 83.1374 204.699 82.1038 204.717L81.774 204.893C81.3232 206.074 80.7921 207.457 80.2122 208.968C77.5852 215.811 73.9565 225.264 72.262 230.251L78.4431 230.245C78.9996 228.362 79.5798 226.485 80.1841 224.615L87.8814 224.611L89.7948 224.634C90.4148 226.466 91.0649 228.432 91.5885 230.292C92.0559 230.288 92.538 230.282 93.0279 230.275C94.663 230.254 96.3841 230.231 97.9251 230.307L92.2795 214.666C91.9525 213.769 91.6107 212.85 91.2651 211.92C90.3682 209.508 89.4451 207.026 88.6864 204.68C87.5204 204.706 86.3603 204.704 85.202 204.702ZM84.9669 209.05C85.0455 209.14 86.8897 215.088 87.9055 218.364L87.9735 218.584C88.266 219.527 88.4789 220.213 88.5427 220.414L85.1241 220.445L81.5389 220.457C81.9712 218.768 82.5392 217.061 83.1093 215.348C83.8072 213.251 84.5081 211.145 84.9669 209.05Z" fill="var(--fill-0, white)"/>
<path fill-rule="evenodd" clip-rule="evenodd" d="M88.4555 220.135C88.3425 219.773 88.1474 219.145 87.9055 218.364L87.9735 218.584C88.1843 219.264 88.3535 219.808 88.4555 220.135Z" fill="white"/>
<path d="M241.227 204.714C245.9 204.624 250.766 204.692 255.457 204.684C255.465 206.144 255.431 207.651 255.417 209.115H246.169C246.05 211.017 246.104 213.382 246.101 215.321L254.733 215.285L254.71 219.542C251.85 219.516 248.99 219.522 246.13 219.561L246.103 223.246L246.09 225.977C249.316 225.892 252.757 225.934 256 225.923L255.98 230.273L240.465 230.279C240.465 227.599 240.363 205.181 240.627 204.79L241.227 204.714Z" fill="var(--fill-0, white)"/>
<path d="M143.931 204.389C146.9 204.163 149.164 204.465 151.978 205.353L151.976 210.161C149.379 208.717 144.479 207.28 141.912 209.623C138.411 212.82 145.672 215.35 147.934 216.345C152.807 218.489 154.904 223.642 151.288 228.014C149.335 230.323 145.423 230.691 142.423 230.768C139.483 230.689 137.83 230.34 135.094 229.354L135.129 224.027C135.297 224.157 135.467 224.286 135.64 224.411C137.982 226.098 140.843 226.991 143.775 226.604C147.251 226.146 148.399 222.879 145.093 220.971C141.7 219.012 135.699 217.733 135.12 212.976C134.406 207.102 138.909 204.898 143.931 204.389Z" fill="var(--fill-0, white)"/>
<path d="M121.948 204.389C124.997 204.177 127.163 204.438 130.043 205.365C130.102 206.908 130.045 208.621 130.024 210.178C127.758 208.857 125.907 208.431 123.283 208.422C121.79 208.417 118.57 209.697 119.059 211.424C120.107 215.137 126.161 215.511 128.703 218.1C130.074 219.289 131.133 220.975 131.156 222.898C131.235 229.492 125.562 230.618 120.456 230.764C117.345 230.682 116.063 230.389 113.208 229.32C113.184 227.57 113.235 225.728 113.26 223.972C115.386 225.731 118.153 226.87 120.938 226.664C121.969 226.622 123.871 226.254 124.473 225.38C127.274 221.321 119.994 219.778 117.575 218.331C115.454 217.062 113.508 215.539 113.23 212.845C113.034 210.935 113.418 209.013 114.696 207.503C116.52 205.347 119.234 204.632 121.948 204.389Z" fill="var(--fill-0, white)"/>
<path d="M25.8951 204.709C30.3491 204.626 35.0774 204.697 39.5471 204.694L39.5259 209.121L30.2012 209.126L30.1777 215.33C33.0181 215.302 35.8586 215.293 38.6993 215.301C38.7235 216.695 38.6929 218.164 38.6866 219.563C35.8565 219.544 33.0263 219.559 30.1967 219.612L30.1925 223.513L30.1959 225.985C33.4212 225.914 36.6896 225.96 39.9316 225.904L39.9319 230.262L24.6013 230.278L24.5987 213.734C24.5951 211.469 24.4642 207.037 24.6705 204.917C25.1258 204.638 25.2735 204.735 25.8951 204.709Z" fill="var(--fill-0, white)"/>
<path d="M227.16 204.387C229.823 204.047 232.647 204.609 235.203 205.322C235.17 207.001 235.166 208.682 235.193 210.362C234.084 209.729 232.879 209.281 231.627 209.033C222.836 207.303 217.554 215.341 221.979 223.04C223.874 226.338 229.2 226.735 232.364 225.743C232.939 225.564 234.717 224.539 235.145 224.611L235.181 225.025C235.133 226.417 235.19 227.977 235.214 229.382C233.665 230.039 232.028 230.467 230.355 230.649C226.395 231.095 222.007 230.604 218.818 228.004C213.437 223.617 213.121 214.4 217.427 209.168C220.006 206.032 223.229 204.814 227.16 204.387Z" fill="var(--fill-0, white)"/>
<path d="M103.03 204.712L107.923 204.678C107.964 210.822 107.966 216.967 107.93 223.111C107.928 224.129 108.003 229.516 107.865 230.163L107.576 230.293C105.836 230.272 104.095 230.27 102.355 230.289C102.348 229.711 102.318 227.891 102.35 227.475C102.553 224.852 101.993 205.559 102.537 204.76L103.03 204.712Z" fill="var(--fill-0, white)"/>
</g>
<g id="Vector_3">
<path fill-rule="evenodd" clip-rule="evenodd" d="M56.5473 243.009C53.6117 242.924 50.8231 242.914 47.8843 242.94C47.6901 243.953 47.7252 247.265 47.7533 249.911C47.7668 251.181 47.7788 252.297 47.7628 252.934C48.2661 252.934 48.8743 252.947 49.5462 252.961C52.6427 253.026 57.0933 253.12 58.8717 252.149C60.8352 249.901 60.915 243.136 56.5473 243.009ZM51.1008 244.908C51.5635 244.936 52.0705 244.92 52.5877 244.904C53.6559 244.871 54.7679 244.837 55.625 245.176C57.0144 245.724 56.6369 249.58 56.129 250.577C55.0619 250.968 53.2746 250.961 51.8744 250.956C51.5907 250.955 51.3228 250.954 51.0802 250.956C51.0624 249.593 51.0748 248.193 51.087 246.805V246.787C51.0926 246.157 51.098 245.529 51.1008 244.908Z" fill="var(--fill-0, white)"/>
<path fill-rule="evenodd" clip-rule="evenodd" d="M51.087 246.787C51.0793 247.681 51.0712 248.579 51.0712 249.469C51.0712 248.585 51.0793 247.692 51.087 246.805V246.787Z" fill="white"/>
<path fill-rule="evenodd" clip-rule="evenodd" d="M127.04 242.843C125.881 242.834 124.411 242.823 123.481 243C120.582 243.232 120.203 244.749 120.047 247.288C119.8 251.281 120.886 253.154 125.197 253.072C125.508 253.066 125.852 253.07 126.217 253.075C128.169 253.099 130.713 253.131 131.863 251.654C132.778 250.336 132.81 247.552 132.567 245.979C132.322 244.399 131.655 243.676 130.258 243.078C129.246 242.912 128.734 242.879 127.705 242.847C127.501 242.847 127.277 242.845 127.04 242.843ZM125.42 244.853L127.492 244.876C127.567 244.898 127.644 244.92 127.723 244.943C128.076 245.043 128.45 245.15 128.75 245.326C129.549 247.547 129.461 251.688 126.223 251.075C125.92 251.018 125.676 251.01 125.445 251.004C125.032 250.991 124.663 250.981 124.079 250.684C123.079 249.523 123.117 246.807 123.853 245.506C124.113 245.045 124.719 244.956 125.226 244.882L125.307 244.87C125.346 244.864 125.384 244.859 125.42 244.853Z" fill="var(--fill-0, white)"/>
<path fill-rule="evenodd" clip-rule="evenodd" d="M125.42 244.853C125.381 244.859 125.34 244.865 125.299 244.871L125.307 244.87C125.346 244.864 125.384 244.859 125.42 244.853Z" fill="white"/>
<path d="M123.481 243C124.601 242.787 126.507 242.847 127.705 242.847C127.542 243.659 127.624 244.199 127.492 244.876L125.42 244.853C125.141 244.288 125.033 243.919 124.84 243.333C124.38 242.921 124.215 243.045 123.481 243Z" fill="var(--fill-0, white)"/>
<path d="M151.361 242.94C153.016 242.907 154.672 242.892 156.327 242.895C157.085 245.083 158.36 248.39 159.274 250.503C160.356 247.867 161.034 245.555 162.318 242.893L167.106 242.89L167.122 252.948L164.006 252.949L163.935 249.104C163.899 247.903 163.935 246.59 163.942 245.38C162.866 247.565 161.674 250.63 160.843 252.926L157.487 252.928C156.573 250.339 155.492 247.763 154.455 245.216L154.413 252.92L151.314 252.935C151.31 249.636 151.262 246.23 151.361 242.94Z" fill="var(--fill-0, white)"/>
<path d="M194.674 242.895L197.694 242.901C197.81 246.078 197.734 249.741 197.679 252.926L192.644 252.934C191.163 250.257 189.68 247.733 188.263 245.003C188.312 247.647 188.314 250.292 188.27 252.935L185.253 252.946C185.221 249.605 185.23 246.264 185.28 242.923C186.893 242.927 188.507 242.917 190.121 242.89C191.64 245.468 193.019 247.976 194.598 250.548C194.739 248.22 194.668 245.269 194.674 242.895Z" fill="var(--fill-0, white)"/>
<path fill-rule="evenodd" clip-rule="evenodd" d="M140.411 242.893C139.927 242.914 139.474 242.934 139.075 242.937L136.647 242.968L136.644 252.942L139.901 252.92L139.911 250.209L142.567 250.134C145.622 250.144 147.901 250.009 147.867 246.194C147.835 242.572 143.488 242.76 140.411 242.893ZM139.92 244.924C140.115 244.918 140.324 244.909 140.541 244.899C142.706 244.802 145.645 244.669 144.093 247.911C143.379 248.19 141.649 248.183 140.502 248.178H140.492C140.269 248.178 140.068 248.177 139.901 248.178L139.92 244.924Z" fill="var(--fill-0, white)"/>
<path d="M5.41657 246.3L38.3823 246.303L38.3919 248.808C33.8484 248.66 28.2656 248.797 23.6899 248.824L5.38191 248.782L5.41657 246.3Z" fill="var(--fill-0, white)"/>
<path d="M218.53 246.289L251.764 246.278C251.781 247.112 251.754 247.938 251.733 248.773C240.663 248.838 229.591 248.842 218.519 248.786L218.53 246.289Z" fill="var(--fill-0, white)"/>
<path d="M63.9681 242.927C67.3192 242.906 70.6704 242.909 74.0215 242.937L74.0171 244.959L67.306 244.897C67.2997 245.557 67.2143 246.464 67.4625 247.031C69.0718 246.85 71.6643 246.912 73.3568 246.912L73.3608 248.721L71.2218 248.729C69.8849 248.752 68.6009 248.694 67.2674 248.642L67.3136 250.911L74.142 250.891L74.1389 252.928L63.9785 252.952L63.9681 242.927Z" fill="var(--fill-0, white)"/>
<path d="M67.4625 247.031C69.0718 246.85 71.6643 246.912 73.3568 246.912L73.3608 248.721L71.2218 248.729C71.4527 248.41 71.552 247.538 71.6279 247.107C70.2225 247.03 68.9552 247.151 67.4625 247.031Z" fill="var(--fill-0, white)"/>
<path d="M171.163 242.929L181.255 242.912L181.251 244.887C179.055 244.981 176.767 244.93 174.562 244.914L174.561 246.968C175.568 246.943 179.906 246.655 180.469 247.264C180.503 247.794 180.545 247.9 180.287 248.375C179.522 249.042 177.288 248.748 176.094 248.748C175.562 248.721 175.124 248.619 174.703 248.898C174.397 249.387 174.519 250.291 174.539 250.916C176.806 250.886 179.094 250.9 181.36 250.897L181.365 252.935L171.171 252.928C171.149 249.594 171.146 246.262 171.163 242.929Z" fill="var(--fill-0, white)"/>
<path d="M93.6485 242.926L103.691 242.92L103.687 244.915C101.44 244.922 99.1931 244.947 96.9466 244.987C96.9196 245.784 96.8967 246.208 97.0009 247.015C98.3546 246.911 101.466 246.826 102.753 247.011C103.058 247.333 103.009 248.048 102.938 248.48C102.311 248.904 101.397 248.762 100.595 248.737C99.413 248.768 98.1172 248.717 96.9267 248.694L96.92 250.924C99.1834 250.891 101.447 250.882 103.711 250.894L103.721 252.932C100.395 252.891 96.9734 252.935 93.6397 252.945L93.6485 242.926Z" fill="var(--fill-0, white)"/>
<path d="M97.0009 247.015C98.3546 246.911 101.466 246.826 102.753 247.011C103.058 247.333 103.009 248.048 102.938 248.48C102.311 248.904 101.397 248.762 100.595 248.737L101.065 247.098C99.7193 247.061 98.3359 247.168 97.0009 247.015Z" fill="var(--fill-0, white)"/>
<path d="M83.7635 250.613C84.4042 249.025 86.3471 244.037 87.0912 242.884C88.1713 242.881 89.2829 242.917 90.3656 242.937L89.4676 245.003C88.2961 247.629 87.1552 250.271 86.0451 252.925L81.366 252.926C80.725 251.258 77.5045 243.969 77.3241 242.935L80.545 242.895C81.6181 245.264 82.7512 248.178 83.7635 250.613Z" fill="var(--fill-0, white)"/>
<path d="M206.999 242.912C208.656 242.903 210.315 242.906 211.972 242.921L211.982 244.921L207.991 244.939C208.011 247.55 207.967 250.339 208.036 252.929L204.735 252.935C204.737 251.95 204.885 245.512 204.548 244.987L200.908 244.949L200.897 242.917C202.93 242.9 204.964 242.898 206.999 242.912Z" fill="var(--fill-0, white)"/>
<path d="M200.897 242.917C202.93 242.9 204.964 242.898 206.999 242.912C206.507 243.248 205.142 243.079 204.545 243.011C203.942 243.481 204.378 244.268 204.548 244.987L200.908 244.949L200.897 242.917Z" fill="var(--fill-0, white)"/>
<path d="M107.688 242.938L110.914 242.898C110.976 245.503 110.91 248.325 110.899 250.945L117.042 250.84L117.012 252.922L107.628 252.923C107.597 250.295 107.426 245.393 107.688 242.938Z" fill="var(--fill-0, white)"/>
</g>
</g>
</svg>
