<svg preserveAspectRatio="none" width="100%" height="100%" overflow="visible" style="display: block;" viewBox="0 0 303.922 76" fill="none" xmlns="http://www.w3.org/2000/svg"><defs><linearGradient id="rb-gold" x1="0" y1="0" x2="0.25" y2="1"><stop offset="0" stop-color="#E7CE8E"/><stop offset="0.45" stop-color="#C6A36C"/><stop offset="1" stop-color="#A6824C"/></linearGradient></defs>
<g id="Group 2087326750">
<g id="Vector">
<path d="M43.6679 30.8996C43.7852 30.436 43.7105 28.6307 43.7382 28.0152C43.9135 24.1114 43.773 20.1492 43.8162 16.2368C43.8323 14.7615 43.7975 13.2633 43.7711 11.7875C43.7678 11.5964 43.8142 11.4298 43.8987 11.28C44.295 10.5753 44.2577 10.2465 44.2931 9.55605C44.3402 8.64545 45.7948 8.53772 46.3691 8.24919C46.2937 8.28718 46.6552 8.00876 46.6256 8.03188C46.8273 8.27411 46.7481 11.4232 46.7474 11.932L46.7132 19.6159C46.7126 20.1219 46.6069 21.8438 46.8086 22.2057L46.8106 55.3332C46.8067 59.5939 46.7165 64.219 46.8119 68.4591C53.1223 64.7631 57.8884 57.8998 59.6222 50.8555C61.4668 43.3618 60.3002 35.558 56.3751 28.907C54.9056 26.417 52.2683 23.2363 49.8552 21.7174C49.8617 20.4996 49.8449 19.1879 49.8772 17.9777C50.6673 18.2462 51.3035 18.5941 51.8758 19.2188C52.9553 20.3964 54.3185 21.4619 55.3594 22.6501C63.0278 31.3987 65.504 43.2199 61.6337 54.2379C59.3495 60.7407 55.8015 65.6362 50.3451 69.8634C47.8714 71.7842 46.7667 72.6612 43.6518 73.515L43.6538 35.4754C43.6538 34.2426 43.5835 32.0592 43.6679 30.8996Z" fill="url(#rb-gold)"/>
<path d="M22.219 13.1231C22.7663 13.9913 22.6436 15.2394 21.982 15.9883C21.7178 16.2873 21.6475 16.5149 21.2741 16.7099C21.4575 16.665 21.6226 16.6476 21.8092 16.6213C21.367 16.9283 20.8648 17.1892 20.3912 17.4497C19.7598 17.8319 18.6584 18.3811 17.9336 18.6005C17.6597 19.0287 17.9755 35.9956 17.8039 38.1459C17.8951 40.0205 17.8036 42.6797 17.8012 44.6057L17.7901 57.3699L17.7732 65.7747C17.775 67.9691 17.8599 70.2382 17.5639 72.403C13.7806 70.8061 9.15464 66.6002 6.69493 63.362C1.57899 56.6803 -0.891869 47.9102 0.292098 39.5482C1.3839 31.8374 5.46552 24.0016 11.7425 19.2758C11.7076 20.2579 11.6602 22.7005 11.3843 23.5515C11.1351 24.3198 9.46343 25.5918 8.8427 26.3884C6.83995 28.9582 5.23414 32.2233 4.31546 35.3275C2.0239 42.8521 2.82902 50.9788 6.55269 57.9088C7.91789 60.4097 12.0865 66.2409 14.8377 67.0515C14.8323 65.6028 14.8945 64.1347 14.9036 62.6795L14.955 49.1514L14.9653 35.571C14.9674 33.1328 14.9382 30.6122 14.9845 28.1798C15.0641 27.8845 15.0511 24.7008 15.0399 24.0905C14.9965 21.7199 15.0978 19.225 15.04 16.8744C17.3516 16.1596 20.1973 14.4785 22.219 13.1231Z" fill="url(#rb-gold)"/>
<path d="M17.8039 38.1459C17.6323 37.5825 17.8042 33.5552 17.7364 32.6793C17.7157 32.4113 17.7659 31.746 17.6932 31.4837C17.6242 31.6005 17.6229 31.5949 17.5184 31.6839C17.4223 31.5209 17.4512 31.1665 17.4509 30.9583C17.5183 30.8901 17.5504 30.8607 17.6264 30.7981L17.6933 30.7437C17.7786 29.8086 17.7069 28.1432 17.7129 27.1407C17.7157 26.6742 17.023 26.9218 16.8874 26.2304C16.9637 25.9933 17.1737 25.7191 17.3186 25.5046L17.4109 25.4944L17.4106 25.639C17.6079 25.5821 17.5157 25.5788 17.6962 25.6219C17.776 24.6387 17.6285 18.9896 17.7908 18.5875L17.9336 18.6005C17.6597 19.0287 17.9755 35.9956 17.8039 38.1459Z" fill="url(#rb-gold)"/>
<path d="M21.2741 16.7099C21.4575 16.665 21.6226 16.6476 21.8092 16.6213C21.367 16.9283 20.8648 17.1892 20.3912 17.4497L20.3107 17.3307C20.5115 17.0915 20.9888 16.8523 21.2741 16.7099Z" fill="url(#rb-gold)"/>
<path d="M32.115 0C32.9763 0.536497 34.5029 1.26204 35.4564 1.76248C38.031 3.10224 40.5852 4.48025 43.1188 5.89612C44.1687 6.47827 45.8554 7.35043 46.8176 7.99877L46.8086 22.2057C46.6069 21.8438 46.7126 20.1219 46.7132 19.6159L46.7474 11.932C46.7481 11.4232 46.8273 8.27411 46.6256 8.03188C46.6552 8.00876 46.2937 8.28718 46.3691 8.24919C45.7948 8.53772 44.3402 8.64545 44.2931 9.55605C44.2577 10.2465 44.295 10.5753 43.8987 11.28C43.8142 11.4298 43.7678 11.5964 43.7711 11.7875C43.7975 13.2633 43.8323 14.7615 43.8162 16.2368C43.773 20.1492 43.9135 24.1114 43.7382 28.0152C43.7105 28.6307 43.7852 30.436 43.6679 30.8996C43.588 28.6518 43.6582 25.9265 43.6582 23.6366L43.6486 9.65855C40.5549 8.33907 38.4873 6.65135 35.2073 5.50643C35.1982 6.33738 35.1907 7.13427 35.1422 7.96374C35.1486 11.1433 35.1342 14.3229 35.0992 17.5023C35.0955 18.9026 35.184 21.3601 35.0947 22.669C35.1598 23.6543 35.1237 24.9614 35.1194 25.9646L35.0953 31.6661C35.0925 34.5097 35.2542 38.0606 35.1361 40.8217C35.2287 48.2442 35.2775 55.6674 35.2825 63.0903C35.2882 65.7109 35.2674 68.3322 35.2201 70.9523C35.1975 72.2053 35.1808 74.343 35.0242 75.551C34.0466 76.0519 33.0843 76.0043 31.9983 75.994C32.1704 68.6252 32.074 60.9429 32.0831 53.56L32.0963 47.491C32.0986 46.573 32.0619 45.2453 32.1115 44.3553C32.0309 43.9609 32.0984 41.5583 32.1014 40.9582L32.0963 33.032L32.115 0Z" fill="url(#rb-gold)"/>
<path d="M35.1422 7.96374C35.1486 11.1433 35.1342 14.3229 35.0992 17.5023C35.0955 18.9026 35.184 21.3601 35.0947 22.669C35.0454 23.0823 35.0671 23.5891 35.0091 24.0936C34.9155 23.6809 34.9482 20.677 34.9491 20.0156C34.9396 17.3357 34.9632 14.6559 35.0199 11.9765C35.0289 11.2445 35.0293 8.6088 35.1422 7.96374Z" fill="url(#rb-gold)"/>
<path d="M14.9602 16.7572C20.0099 15.1879 23.7668 11.1777 29.2277 9.47653L29.1912 44.0748C29.1917 45.2941 29.2466 47.1361 29.1589 48.2928C29.2095 49.0622 29.1819 50.0449 29.1827 50.84L29.1783 69.1848C29.1788 71.3496 29.1389 73.7243 29.1953 75.8794C28.3188 75.7635 27.0282 75.5246 26.2106 75.4583L26.2314 58.4851C26.2351 55.8303 26.1674 52.8491 26.2502 50.2162C26.1817 49.6996 26.219 47.4187 26.2191 46.7691L26.1961 14.4414C24.2765 15.0584 23.4603 15.7987 21.8092 16.6213C21.6226 16.6476 21.4575 16.665 21.2741 16.7099C21.6475 16.5149 21.7178 16.2873 21.982 15.9883C22.6436 15.2394 22.7663 13.9913 22.219 13.1231C20.1973 14.4785 17.3516 16.1596 15.04 16.8744C15.0978 19.225 14.9965 21.7199 15.0399 24.0905C15.0511 24.7008 15.0641 27.8845 14.9845 28.1798C14.9366 24.3978 14.9549 20.5421 14.9602 16.7572Z" fill="url(#rb-gold)"/>
<path d="M37.9093 9.83705C38.8625 10.3625 39.9582 10.9987 40.9346 11.4551L40.9301 71.6451C40.9294 72.2465 40.9578 73.4055 40.8966 73.9548L40.8927 74.6096C39.8473 74.8524 38.8503 75.0829 37.7926 75.2806C37.917 74.1583 37.8532 71.6947 37.8558 70.4455L37.9202 29.3314C37.8764 28.0173 37.8854 26.6397 37.8996 25.3214C37.9531 20.1677 37.8351 14.9879 37.9093 9.83705Z" fill="url(#rb-gold)"/>
<path d="M37.9093 9.83705C38.8625 10.3625 39.9582 10.9987 40.9346 11.4551L40.9301 71.6451C40.9294 72.2465 40.9578 73.4055 40.8966 73.9548C40.827 73.1299 40.8752 71.3238 40.8759 70.4526L40.8797 63.608L40.8598 32.0905L40.7921 20.7085C40.7863 19.9459 40.9352 15.9189 40.669 15.5964C40.2288 15.997 39.746 16.3954 39.2891 16.7785C38.9546 17.0588 39.088 17.3406 38.8418 17.5801L38.7251 17.5043C38.6646 17.7858 38.3152 18.5072 38.2385 18.887C38.1644 19.2504 38.2418 19.274 38.1683 19.6015L38.0639 19.6346L38.0181 19.5335C37.9408 21.7673 38.0664 24.0564 38.013 26.2931C37.993 27.1433 38.1039 28.5284 37.9202 29.3314C37.8764 28.0173 37.8854 26.6397 37.8996 25.3214C37.9531 20.1677 37.8351 14.9879 37.9093 9.83705Z" fill="url(#rb-gold)"/>
<path d="M20.4999 20.4978C21.5155 20.0091 22.4762 19.5844 23.4837 19.0637L23.4741 36.2816C23.4735 36.7654 23.4904 37.9617 23.4233 38.4211C23.4633 41.7159 23.4235 45.0696 23.4217 48.3708L23.4176 74.7719C22.5025 74.4602 21.2933 73.931 20.4517 73.6966L20.4523 45.2181C20.4525 44.0963 20.4114 42.6686 20.4596 41.564C20.3627 39.133 20.4086 35.7529 20.46 33.2892C20.4131 32.5438 20.4476 31.371 20.4473 30.5983L20.4462 25.3965C20.4462 24.7085 20.4072 20.9161 20.4999 20.4978Z" fill="url(#rb-gold)"/>
</g>
<g id="Group 2087326749">
<g id="Vector_2">
<path d="M242.466 17.101L248.04 17.0888C251.176 22.0903 255.296 27.8006 258.686 32.767C258.588 27.6478 258.667 22.281 258.675 17.1415L263.431 17.0847C263.447 24.3598 263.55 32.0528 263.412 39.3009L263.16 39.4875C261.521 39.4469 259.882 39.4429 258.244 39.4767C254.741 34.1546 250.513 28.6635 247.195 23.3414C247.321 28.5526 247.233 34.2128 247.218 39.4483C245.634 39.4497 244.051 39.4645 242.469 39.4929L242.466 17.101Z" fill="url(#rb-gold)"/>
<path d="M135.027 17.1483L139.839 17.0901L139.851 31.4063C139.851 33.6839 139.952 37.1747 139.792 39.3171C139.349 39.5619 139.26 39.4645 138.67 39.4618C137.373 39.4186 135.951 39.4618 134.644 39.4754C131.504 34.2331 127.069 28.769 123.884 23.2981C123.948 28.6567 123.892 34.1181 123.888 39.4821C122.316 39.4375 120.743 39.4388 119.171 39.4848C119.175 32.959 119.156 26.4332 119.154 19.9074C119.154 19.342 119.063 17.5081 119.368 17.1618L120.007 17.124L124.778 17.0983C125.826 18.8849 127.398 21.08 128.58 22.8396C130.836 26.1397 133.009 29.4953 135.099 32.9022C134.944 27.7316 135.021 22.3351 135.027 17.1483Z" fill="url(#rb-gold)"/>
<path fill-rule="evenodd" clip-rule="evenodd" d="M82.1682 17.0636C81.4554 17.0871 80.8025 17.1087 80.2376 17.1131C80.1685 22.3905 80.1854 27.7358 80.2023 33.0561C80.2091 35.2024 80.2159 37.3447 80.217 39.4767C80.6002 39.4727 80.9958 39.4664 81.3973 39.46C82.6282 39.4405 83.9154 39.42 85.076 39.4618L85.0844 30.8626C85.2112 30.8641 85.3369 30.8644 85.4612 30.8646C86.5928 30.8667 87.6137 30.8687 88.4113 31.7985C89.5569 33.133 90.5281 34.7912 91.4811 36.4186C92.0986 37.4731 92.7086 38.5147 93.3537 39.447L95.1636 39.4483L99.0016 39.4253C98.6051 38.8165 98.2178 38.2026 97.8305 37.5889C97.4375 36.9661 97.0445 36.3434 96.6422 35.7262C96.3528 35.2822 96.0841 34.8479 95.8228 34.4256C94.5912 32.435 93.5251 30.7122 91.2435 29.4993C92.9548 28.8596 95.1877 27.806 95.8213 25.9882C99.1275 16.5035 88.376 16.8585 82.1682 17.0636ZM85.6066 20.7208L85.6131 20.7205C87.9196 20.6311 91.1823 20.5047 91.3133 23.5713C91.3653 24.7913 91.0347 25.4688 90.2138 26.3521C88.6167 27.3241 87.4659 27.3241 85.8117 27.3241C85.683 27.3241 85.5512 27.3241 85.416 27.3245C85.2942 27.3249 85.1697 27.3257 85.042 27.3272C85.082 25.7822 85.0849 24.1973 85.0876 22.6274C85.0887 21.9944 85.0899 21.3638 85.0934 20.7392C85.2576 20.7342 85.4294 20.7276 85.6066 20.7208Z" fill="url(#rb-gold)"/>
<path fill-rule="evenodd" clip-rule="evenodd" d="M85.6131 20.7205C85.4572 20.7265 85.3056 20.7324 85.1596 20.7371C85.3035 20.7324 85.4531 20.7267 85.6066 20.7208L85.6131 20.7205Z" fill="white"/>
<path fill-rule="evenodd" clip-rule="evenodd" d="M229.506 17.094C228.481 17.0942 227.434 17.0944 226.448 17.128L224.627 17.1239L218.798 32.6953C218.558 33.3327 218.308 34.0176 218.052 34.7195C217.461 36.3348 216.838 38.0396 216.243 39.4605C218.081 39.4537 219.917 39.4577 221.755 39.4726L223.365 34.5008L231.721 34.5184C232.272 36.155 232.799 37.7996 233.301 39.4537C233.762 39.453 234.239 39.4551 234.722 39.4573C236.098 39.4634 237.53 39.4698 238.832 39.4117C237.668 35.8551 236.284 32.2306 234.904 28.6145C233.422 24.7322 231.943 20.8596 230.745 17.0915C230.34 17.0938 229.925 17.0939 229.506 17.094ZM227.502 20.9393C227.687 21.2423 230.348 29.9753 230.56 30.8477L227.672 30.8693C226.597 30.868 225.523 30.8761 224.448 30.891C224.692 30.1161 224.975 29.2471 225.273 28.335C226.085 25.8461 227.002 23.0356 227.502 20.9393Z" fill="url(#rb-gold)"/>
<path fill-rule="evenodd" clip-rule="evenodd" d="M154.651 17.1137C153.748 17.1122 152.846 17.1107 151.943 17.1266L151.655 17.2808C151.261 18.3123 150.797 19.5214 150.29 20.8415C147.994 26.8227 144.822 35.0842 143.342 39.4429L148.744 39.4375C149.23 37.7915 149.737 36.1509 150.265 34.5171L156.992 34.513L158.665 34.5333C159.206 36.1347 159.775 37.8523 160.232 39.478C160.641 39.4749 161.062 39.4693 161.49 39.4637C162.919 39.4449 164.423 39.425 165.77 39.4916L160.836 25.8218C160.55 25.0378 160.252 24.2344 159.95 23.4219C159.166 21.3137 158.359 19.1443 157.696 17.0942C156.677 17.1171 155.663 17.1154 154.651 17.1137ZM154.445 20.9136C154.514 20.9924 156.126 26.1906 157.013 29.054L157.073 29.2461C157.328 30.07 157.514 30.6696 157.57 30.845L154.583 30.8721L151.449 30.8829C151.827 29.4065 152.323 27.9148 152.822 26.4178C153.432 24.585 154.044 22.7442 154.445 20.9136Z" fill="url(#rb-gold)"/>
<path fill-rule="evenodd" clip-rule="evenodd" d="M157.494 30.6018C157.395 30.2854 157.225 29.7359 157.013 29.054L157.073 29.2461C157.257 29.8399 157.405 30.3159 157.494 30.6018Z" fill="white"/>
<path d="M291.011 17.1239C295.095 17.0455 299.347 17.105 303.447 17.0982C303.454 18.3736 303.424 19.691 303.412 20.9704H295.33C295.226 22.6326 295.273 24.6993 295.27 26.394L302.814 26.3629L302.794 30.0836C300.295 30.0606 297.795 30.066 295.296 30.0998L295.272 33.3201L295.261 35.7073C298.08 35.6329 301.087 35.6694 303.922 35.6599L303.904 39.4618L290.344 39.4672C290.344 37.1247 290.255 17.5324 290.486 17.1902L291.011 17.1239Z" fill="url(#rb-gold)"/>
<path d="M205.978 16.8399C208.572 16.6425 210.551 16.9062 213.01 17.6825L213.009 21.8847C210.739 20.6229 206.456 19.3664 204.213 21.4141C201.153 24.2083 207.499 26.4197 209.476 27.2893C213.735 29.1625 215.567 33.6664 212.407 37.4872C210.701 39.5051 207.281 39.827 204.659 39.8946C202.09 39.8256 200.645 39.52 198.254 38.6584L198.285 34.0031C198.432 34.1168 198.581 34.229 198.732 34.3386C200.778 35.8128 203.279 36.5932 205.841 36.255C208.879 35.8547 209.883 32.9996 206.993 31.332C204.028 29.6197 198.783 28.5025 198.277 24.3449C197.653 19.2109 201.589 17.2849 205.978 16.8399Z" fill="url(#rb-gold)"/>
<path d="M186.765 16.8399C189.43 16.6546 191.323 16.8832 193.84 17.6933C193.892 19.0418 193.841 20.539 193.824 21.8996C191.843 20.7446 190.225 20.3726 187.932 20.3645C186.627 20.3605 183.813 21.479 184.24 22.9884C185.157 26.233 190.447 26.5603 192.669 28.8231C193.867 29.8618 194.792 31.336 194.813 33.0158C194.882 38.7788 189.924 39.7634 185.461 39.8906C182.742 39.8189 181.622 39.5633 179.127 38.6287C179.106 37.099 179.15 35.4895 179.172 33.9544C181.03 35.4922 183.448 36.4877 185.882 36.3078C186.783 36.2713 188.446 35.9494 188.972 35.1852C191.42 31.6376 185.058 30.2892 182.943 29.0246C181.09 27.9155 179.389 26.5847 179.146 24.23C178.974 22.561 179.31 20.8812 180.427 19.5612C182.021 17.6771 184.393 17.0523 186.765 16.8399Z" fill="url(#rb-gold)"/>
<path d="M102.819 17.1199C106.711 17.0468 110.844 17.1091 114.75 17.1064L114.731 20.9759L106.582 20.9799L106.561 26.4021C109.044 26.3777 111.526 26.3696 114.009 26.3764C114.03 27.595 114.003 28.8785 113.998 30.1012C111.525 30.0849 109.051 30.0985 106.578 30.1444L106.574 33.5541L106.577 35.714C109.396 35.6518 112.253 35.6924 115.086 35.6437L115.086 39.4523L101.688 39.4659L101.686 25.0077C101.683 23.0276 101.568 19.154 101.748 17.3011C102.146 17.0577 102.275 17.1429 102.819 17.1199Z" fill="url(#rb-gold)"/>
<path d="M278.717 16.8385C281.044 16.541 283.512 17.032 285.746 17.6555C285.717 19.1229 285.713 20.5917 285.737 22.0605C284.768 21.5074 283.715 21.1152 282.621 20.8988C274.938 19.3867 270.321 26.4115 274.188 33.1402C275.845 36.0224 280.499 36.37 283.264 35.503C283.767 35.3461 285.321 34.4508 285.695 34.513L285.727 34.8755C285.685 36.0914 285.735 37.4547 285.755 38.6828C284.401 39.2576 282.971 39.6309 281.509 39.7904C278.048 40.18 274.213 39.7512 271.426 37.479C266.723 33.6447 266.447 25.5892 270.21 21.0164C272.464 18.2763 275.281 17.2118 278.717 16.8385Z" fill="url(#rb-gold)"/>
<path d="M170.231 17.1226L174.508 17.0928C174.544 22.4622 174.546 27.833 174.514 33.2024C174.512 34.0924 174.578 38.8004 174.457 39.3657L174.205 39.4794C172.684 39.4604 171.162 39.4591 169.641 39.4753C169.635 38.9708 169.609 37.3803 169.638 37.0165C169.815 34.724 169.326 17.8624 169.801 17.1645L170.231 17.1226Z" fill="url(#rb-gold)"/>
</g>
<g id="Vector_3">
<path fill-rule="evenodd" clip-rule="evenodd" d="M129.607 50.593C127.042 50.5186 124.605 50.5091 122.036 50.5321C121.866 51.4178 121.897 54.312 121.922 56.6251C121.934 57.7345 121.944 58.7102 121.93 59.2665C122.37 59.2668 122.901 59.2779 123.489 59.2902C126.195 59.3471 130.085 59.4288 131.639 58.5808C133.355 56.6156 133.425 50.7039 129.607 50.593ZM124.847 52.2525C125.252 52.2763 125.695 52.2627 126.147 52.2488C127.08 52.2201 128.052 52.1903 128.801 52.4864C130.016 52.9652 129.686 56.3357 129.242 57.2067C128.309 57.5486 126.747 57.5426 125.523 57.5379C125.275 57.537 125.041 57.536 124.829 57.5381C124.814 56.3464 124.825 55.123 124.835 53.91V53.8947C124.84 53.3437 124.845 52.795 124.847 52.2525Z" fill="url(#rb-gold)"/>
<path fill-rule="evenodd" clip-rule="evenodd" d="M124.835 53.8947C124.828 54.6753 124.821 55.4604 124.821 56.2386C124.821 55.4655 124.828 54.6856 124.835 53.91V53.8947Z" fill="white"/>
<path fill-rule="evenodd" clip-rule="evenodd" d="M191.215 50.4479C190.203 50.44 188.917 50.43 188.105 50.5848C185.571 50.7877 185.24 52.1132 185.103 54.3326C184.888 57.822 185.837 59.4586 189.604 59.3869C189.876 59.3818 190.177 59.3856 190.496 59.3896C192.202 59.411 194.425 59.439 195.43 58.148C196.23 56.9957 196.258 54.5625 196.046 53.1884C195.831 51.8075 195.249 51.1759 194.028 50.6525C193.143 50.5078 192.695 50.4793 191.796 50.451C191.618 50.451 191.422 50.4494 191.215 50.4479ZM189.8 52.2037L191.61 52.224C191.676 52.2437 191.743 52.2629 191.812 52.2825C192.121 52.3705 192.447 52.4637 192.71 52.6176C193.408 54.5585 193.331 58.1777 190.502 57.6422C190.237 57.5918 190.023 57.5855 189.821 57.5795C189.46 57.5689 189.138 57.5594 188.627 57.2999C187.754 56.2856 187.787 53.912 188.43 52.7745C188.657 52.3717 189.187 52.2942 189.63 52.2294L189.701 52.2191C189.734 52.214 189.768 52.209 189.8 52.2037Z" fill="url(#rb-gold)"/>
<path fill-rule="evenodd" clip-rule="evenodd" d="M189.8 52.2037C189.765 52.2093 189.73 52.2147 189.694 52.2201L189.701 52.2191C189.734 52.214 189.768 52.209 189.8 52.2037Z" fill="white"/>
<path d="M188.105 50.5848C189.084 50.3982 190.749 50.451 191.796 50.451C191.654 51.161 191.726 51.633 191.61 52.224L189.8 52.2038C189.556 51.7102 189.461 51.3883 189.293 50.8757C188.891 50.5159 188.747 50.6241 188.105 50.5848Z" fill="url(#rb-gold)"/>
<path d="M212.471 50.5321C213.917 50.5037 215.364 50.4901 216.811 50.4928C217.474 52.4053 218.588 55.2956 219.387 57.1417C220.332 54.8384 220.924 52.8178 222.047 50.4915L226.232 50.4888L226.245 59.2787L223.522 59.28L223.46 55.9191C223.429 54.8695 223.46 53.7226 223.467 52.665C222.525 54.5747 221.484 57.2526 220.758 59.2598L217.825 59.2611C217.026 56.9984 216.081 54.7478 215.175 52.5216L215.138 59.2543L212.43 59.2679C212.426 56.3843 212.384 53.4075 212.471 50.5321Z" fill="url(#rb-gold)"/>
<path d="M250.325 50.4928L252.964 50.4983C253.066 53.2749 253 56.4763 252.951 59.2598L248.551 59.2665C247.257 56.9267 245.96 54.7208 244.721 52.3349C244.765 54.6464 244.766 56.9578 244.728 59.2679L242.091 59.2773C242.063 56.3573 242.071 53.4372 242.114 50.5172C243.525 50.5213 244.935 50.5118 246.345 50.4888C247.673 52.742 248.878 54.9331 250.259 57.181C250.382 55.1468 250.319 52.5676 250.325 50.4928Z" fill="url(#rb-gold)"/>
<path fill-rule="evenodd" clip-rule="evenodd" d="M202.901 50.4912C202.478 50.5095 202.083 50.5267 201.734 50.5294L199.611 50.5565L199.608 59.2733L202.455 59.2544L202.464 56.8848L204.785 56.8199C207.455 56.828 209.447 56.7103 209.417 53.3764C209.389 50.2106 205.59 50.375 202.901 50.4912ZM202.472 52.266C202.643 52.2611 202.825 52.2529 203.015 52.2443C204.907 52.1592 207.475 52.0436 206.119 54.8763C205.495 55.1202 203.983 55.1143 202.98 55.1104H202.972C202.777 55.1097 202.601 55.109 202.455 55.1103L202.472 52.266Z" fill="url(#rb-gold)"/>
<path d="M84.921 53.4684L113.732 53.4711L113.74 55.6608C109.769 55.5309 104.89 55.6513 100.891 55.6743L84.8907 55.6378L84.921 53.4684Z" fill="url(#rb-gold)"/>
<path d="M271.174 53.4589L300.219 53.4495C300.234 54.1785 300.211 54.9007 300.192 55.6297C290.517 55.6865 280.841 55.6906 271.165 55.6419L271.174 53.4589Z" fill="url(#rb-gold)"/>
<path d="M136.093 50.5213C139.022 50.5023 141.95 50.505 144.879 50.5294L144.875 52.2971L139.01 52.243C139.005 52.8191 138.93 53.6117 139.147 54.1081C140.553 53.9498 142.819 54.0039 144.298 54.0039L144.302 55.585L142.432 55.5918C141.264 55.6121 140.142 55.5607 138.976 55.516L139.017 57.4988L144.984 57.4812L144.982 59.2611L136.102 59.2827L136.093 50.5213Z" fill="url(#rb-gold)"/>
<path d="M139.147 54.1081C140.553 53.9498 142.819 54.0039 144.298 54.0039L144.302 55.585L142.432 55.5918C142.634 55.3132 142.721 54.5504 142.787 54.1744C141.559 54.1068 140.451 54.2122 139.147 54.1081Z" fill="url(#rb-gold)"/>
<path d="M229.777 50.5226L238.597 50.5077L238.593 52.2335C236.675 52.316 234.675 52.2714 232.748 52.2579L232.747 54.0527C233.627 54.031 237.418 53.7794 237.91 54.311C237.94 54.7749 237.977 54.8669 237.751 55.2821C237.083 55.865 235.13 55.608 234.087 55.608C233.621 55.585 233.239 55.4958 232.871 55.7392C232.603 56.1666 232.71 56.9565 232.728 57.5029C234.709 57.4772 236.708 57.4894 238.689 57.4867L238.693 59.2679L229.784 59.2611C229.765 56.3479 229.762 53.4359 229.777 50.5226Z" fill="url(#rb-gold)"/>
<path d="M162.032 50.52L170.81 50.5145L170.805 52.2579C168.842 52.2647 166.878 52.2863 164.915 52.3215C164.891 53.018 164.871 53.3886 164.962 54.0933C166.145 54.0026 168.865 53.9282 169.989 54.0905C170.256 54.3719 170.213 54.9967 170.151 55.3741C169.603 55.7447 168.804 55.6202 168.103 55.5986C167.07 55.6256 165.938 55.581 164.897 55.5607L164.892 57.5097C166.87 57.4813 168.848 57.4732 170.826 57.484L170.835 59.2652C167.928 59.2287 164.938 59.2679 162.025 59.276L162.032 50.52Z" fill="url(#rb-gold)"/>
<path d="M164.962 54.0933C166.145 54.0026 168.865 53.9282 169.989 54.0905C170.256 54.3719 170.213 54.9967 170.151 55.3741C169.603 55.7447 168.804 55.6202 168.103 55.5986L168.515 54.1663C167.338 54.1338 166.129 54.2272 164.962 54.0933Z" fill="url(#rb-gold)"/>
<path d="M153.393 57.2378C153.953 55.8501 155.651 51.491 156.302 50.4834C157.245 50.4807 158.217 50.5118 159.163 50.5294L158.378 52.335C157.355 54.6302 156.357 56.9389 155.387 59.2584L151.298 59.2598C150.738 57.8018 147.923 51.4315 147.765 50.5281L150.58 50.4929C151.518 52.5636 152.509 55.1103 153.393 57.2378Z" fill="url(#rb-gold)"/>
<path d="M261.096 50.5077C262.545 50.4996 263.994 50.5023 265.442 50.5159L265.452 52.2633L261.963 52.2795C261.981 54.5612 261.943 56.9984 262.002 59.2625L259.118 59.2679C259.119 58.4063 259.249 52.7799 258.955 52.3214L255.773 52.2876L255.763 50.5118C257.54 50.4969 259.318 50.4956 261.096 50.5077Z" fill="url(#rb-gold)"/>
<path d="M255.763 50.5118C257.54 50.4969 259.318 50.4956 261.096 50.5077C260.666 50.8012 259.474 50.6538 258.952 50.5943C258.424 51.0055 258.806 51.6925 258.955 52.3214L255.773 52.2876L255.763 50.5118Z" fill="url(#rb-gold)"/>
<path d="M174.303 50.5307L177.122 50.4956C177.176 52.7718 177.118 55.2388 177.108 57.5286L182.478 57.4366L182.451 59.2557L174.25 59.2571C174.223 56.9605 174.074 52.6758 174.303 50.5307Z" fill="url(#rb-gold)"/>
</g>
</g>
</g>
</svg>
